<svg width="370" height="86" viewBox="0 0 370 86" fill="none" xmlns="http://www.w3.org/2000/svg">
<path d="M0 0H370V66C370 77.0457 361.046 86 350 86H20C8.95432 86 0 77.0457 0 66V0Z" fill="white"/>
<g filter="url(#filter0_d_388_5784)">
<rect x="168.5" y="53.5" width="34" height="23" rx="3.5" fill="white" stroke="#F3F3F3"/>
<path fill-rule="evenodd" clip-rule="evenodd" d="M183.954 65.154L184.107 64.1889L183.767 64.181H182.146L183.273 57.0593C183.276 57.0378 183.288 57.0177 183.304 57.0035C183.321 56.9893 183.342 56.9814 183.364 56.9814H186.097C187.005 56.9814 187.631 57.1697 187.958 57.5413C188.111 57.7156 188.209 57.8978 188.256 58.0982C188.305 58.3086 188.306 58.5599 188.258 58.8664L188.254 58.8887V59.0852L188.408 59.1718C188.537 59.24 188.639 59.3182 188.718 59.4076C188.849 59.5567 188.934 59.7461 188.97 59.9707C189.007 60.2016 188.994 60.4765 188.934 60.7877C188.864 61.1456 188.751 61.4574 188.598 61.7124C188.458 61.9474 188.279 62.1424 188.066 62.2935C187.864 62.437 187.623 62.546 187.35 62.6157C187.086 62.6842 186.785 62.7188 186.455 62.7188H186.242C186.09 62.7188 185.943 62.7734 185.827 62.8713C185.71 62.9713 185.634 63.1078 185.61 63.2571L185.594 63.3441L185.325 65.0451L185.313 65.1075C185.309 65.1273 185.304 65.1372 185.296 65.1438C185.288 65.1499 185.278 65.154 185.268 65.154H183.954" fill="#28356A"/>
<path fill-rule="evenodd" clip-rule="evenodd" d="M188.553 58.9111C188.545 58.9631 188.535 59.0163 188.525 59.0709C188.165 60.9161 186.932 61.5535 185.357 61.5535H184.555C184.362 61.5535 184.2 61.6929 184.17 61.8824L183.643 65.2144C183.624 65.3388 183.72 65.4509 183.846 65.4509H185.268C185.436 65.4509 185.579 65.3289 185.606 65.1633L185.62 65.0913L185.888 63.3969L185.905 63.304C185.931 63.1378 186.074 63.0157 186.243 63.0157H186.455C187.833 63.0157 188.912 62.458 189.227 60.8437C189.359 60.1694 189.291 59.6064 188.942 59.2104C188.837 59.091 188.706 58.9919 188.553 58.9111" fill="#298FC2"/>
<path fill-rule="evenodd" clip-rule="evenodd" d="M188.176 58.7608C188.121 58.7448 188.064 58.7303 188.006 58.7172C187.947 58.7044 187.887 58.6931 187.825 58.6832C187.609 58.6484 187.372 58.6318 187.119 58.6318H184.976C184.924 58.6318 184.874 58.6437 184.829 58.6652C184.73 58.7126 184.657 58.8058 184.639 58.92L184.183 61.798L184.17 61.8819C184.2 61.6925 184.362 61.5531 184.555 61.5531H185.357C186.931 61.5531 188.165 60.9153 188.525 59.0705C188.536 59.0159 188.545 58.9627 188.553 58.9107C188.462 58.8625 188.363 58.8212 188.257 58.786C188.23 58.7773 188.203 58.769 188.176 58.7608" fill="#22284F"/>
<path fill-rule="evenodd" clip-rule="evenodd" d="M184.639 58.9204C184.656 58.8062 184.73 58.7129 184.829 58.6659C184.874 58.6443 184.924 58.6325 184.976 58.6325H187.118C187.372 58.6325 187.609 58.6491 187.825 58.6839C187.887 58.6937 187.947 58.7051 188.006 58.7179C188.064 58.7309 188.121 58.7455 188.176 58.7614C188.203 58.7696 188.23 58.778 188.257 58.7864C188.363 58.8216 188.462 58.8632 188.553 58.9111C188.66 58.2292 188.552 57.765 188.182 57.3446C187.775 56.8817 187.039 56.6836 186.098 56.6836H183.365C183.172 56.6836 183.008 56.823 182.979 57.0128L181.84 64.2077C181.818 64.3501 181.928 64.4785 182.072 64.4785H183.759L184.639 58.9204" fill="#28356A"/>
<path fill-rule="evenodd" clip-rule="evenodd" d="M175.902 67.1123H173.909C173.773 67.1123 173.657 67.2111 173.636 67.3454L172.83 72.4403C172.814 72.5409 172.892 72.6315 172.994 72.6315H173.945C174.082 72.6315 174.198 72.5328 174.219 72.3983L174.436 71.024C174.457 70.8895 174.574 70.7907 174.71 70.7907H175.34C176.653 70.7907 177.411 70.1573 177.609 68.9023C177.698 68.3532 177.612 67.9218 177.354 67.6196C177.071 67.2878 176.569 67.1123 175.902 67.1123ZM176.132 68.9732C176.023 69.6862 175.476 69.6862 174.948 69.6862H174.648L174.858 68.3546C174.871 68.2742 174.941 68.2149 175.023 68.2149H175.16C175.52 68.2149 175.86 68.2149 176.035 68.4194C176.14 68.5414 176.172 68.7227 176.132 68.9732V68.9732Z" fill="#28356A"/>
<path fill-rule="evenodd" clip-rule="evenodd" d="M181.909 68.9118H180.955C180.874 68.9118 180.803 68.971 180.791 69.0515L180.749 69.3176L180.682 69.2212C180.475 68.9222 180.015 68.8223 179.555 68.8223C178.5 68.8223 177.6 69.6186 177.424 70.7357C177.333 71.2929 177.463 71.8258 177.78 72.1974C178.071 72.539 178.487 72.6814 178.982 72.6814C179.831 72.6814 180.303 72.1367 180.303 72.1367L180.26 72.4011C180.244 72.5021 180.322 72.5928 180.424 72.5928H181.283C181.42 72.5928 181.535 72.494 181.557 72.3595L182.073 69.1029C182.089 69.0027 182.011 68.9118 181.909 68.9118ZM180.579 70.7636C180.487 71.3072 180.054 71.6721 179.502 71.6721C179.225 71.6721 179.004 71.5835 178.862 71.4156C178.721 71.2488 178.667 71.0114 178.712 70.747C178.798 70.2081 179.238 69.8313 179.781 69.8313C180.052 69.8313 180.273 69.9211 180.418 70.0904C180.563 70.2615 180.621 70.5004 180.579 70.7636V70.7636Z" fill="#28356A"/>
<path fill-rule="evenodd" clip-rule="evenodd" d="M186.918 68.9932H185.959C185.867 68.9932 185.781 69.0385 185.73 69.1143L184.407 71.0568L183.846 69.1901C183.811 69.0733 183.703 68.9932 183.581 68.9932H182.639C182.524 68.9932 182.444 69.1047 182.481 69.2122L183.537 72.3028L182.544 73.7006C182.466 73.8107 182.545 73.9621 182.68 73.9621H183.637C183.728 73.9621 183.813 73.9179 183.865 73.8436L187.054 69.2532C187.131 69.1434 187.052 68.9932 186.918 68.9932" fill="#28356A"/>
<path fill-rule="evenodd" clip-rule="evenodd" d="M190.115 67.1123H188.122C187.986 67.1123 187.87 67.2111 187.848 67.3454L187.042 72.4403C187.026 72.5409 187.104 72.6315 187.206 72.6315H188.229C188.324 72.6315 188.405 72.5624 188.42 72.4683L188.649 71.024C188.67 70.8895 188.786 70.7907 188.922 70.7907H189.553C190.865 70.7907 191.623 70.1573 191.821 68.9023C191.91 68.3532 191.824 67.9218 191.566 67.6196C191.283 67.2878 190.781 67.1123 190.115 67.1123ZM190.344 68.9732C190.236 69.6862 189.689 69.6862 189.161 69.6862H188.861L189.072 68.3546C189.084 68.2742 189.154 68.2149 189.236 68.2149H189.373C189.733 68.2149 190.073 68.2149 190.248 68.4194C190.353 68.5414 190.384 68.7227 190.344 68.9732V68.9732Z" fill="#298FC2"/>
<path fill-rule="evenodd" clip-rule="evenodd" d="M196.121 68.9118H195.167C195.085 68.9118 195.016 68.971 195.003 69.0515L194.961 69.3176L194.894 69.2212C194.687 68.9222 194.227 68.8223 193.767 68.8223C192.713 68.8223 191.813 69.6186 191.637 70.7357C191.546 71.2929 191.675 71.8258 191.992 72.1974C192.284 72.539 192.699 72.6814 193.194 72.6814C194.044 72.6814 194.515 72.1367 194.515 72.1367L194.472 72.4011C194.456 72.5021 194.534 72.5928 194.637 72.5928H195.496C195.632 72.5928 195.748 72.494 195.769 72.3595L196.285 69.1029C196.301 69.0027 196.223 68.9118 196.121 68.9118ZM194.791 70.7636C194.699 71.3072 194.266 71.6721 193.714 71.6721C193.437 71.6721 193.215 71.5835 193.073 71.4156C192.932 71.2488 192.879 71.0114 192.923 70.747C193.01 70.2081 193.449 69.8313 193.993 69.8313C194.264 69.8313 194.484 69.9211 194.629 70.0904C194.775 70.2615 194.833 70.5004 194.791 70.7636V70.7636Z" fill="#298FC2"/>
<path fill-rule="evenodd" clip-rule="evenodd" d="M197.166 67.2524L196.348 72.4406C196.332 72.5412 196.41 72.6317 196.512 72.6317H197.334C197.471 72.6317 197.587 72.533 197.608 72.3985L198.414 67.3038C198.43 67.2032 198.352 67.1123 198.251 67.1123H197.33C197.249 67.1125 197.179 67.1719 197.166 67.2524" fill="#298FC2"/>
</g>
<path d="M154.632 34V20.04C155.179 19.9733 155.779 19.9267 156.432 19.9C157.099 19.86 157.785 19.84 158.492 19.84C159.652 19.84 160.639 20.0267 161.452 20.4C162.265 20.76 162.885 21.26 163.312 21.9C163.739 22.54 163.952 23.2733 163.952 24.1C163.952 25.1 163.705 25.9467 163.212 26.64C162.719 27.3333 162.032 27.8667 161.152 28.24C160.272 28.6 159.252 28.78 158.092 28.78C157.532 28.78 157.012 28.76 156.532 28.72V34H154.632ZM158.332 27.2C159.519 27.2 160.439 26.9333 161.092 26.4C161.745 25.8667 162.072 25.1533 162.072 24.26C162.072 23.3933 161.759 22.7067 161.132 22.2C160.505 21.6933 159.612 21.44 158.452 21.44C158.092 21.44 157.752 21.4467 157.432 21.46C157.112 21.4733 156.812 21.4933 156.532 21.52V27.1C156.745 27.1267 157.005 27.1533 157.312 27.18C157.619 27.1933 157.959 27.2 158.332 27.2ZM169.74 34.24C168.873 34.24 168.087 34.02 167.38 33.58C166.673 33.14 166.107 32.52 165.68 31.72C165.267 30.9067 165.06 29.9533 165.06 28.86C165.06 27.82 165.267 26.8867 165.68 26.06C166.107 25.2333 166.687 24.58 167.42 24.1C168.167 23.6067 169.02 23.36 169.98 23.36C170.58 23.36 171.12 23.4667 171.6 23.68C172.093 23.88 172.52 24.1333 172.88 24.44V23.6H174.52V31.48C174.52 31.9867 174.64 32.32 174.88 32.48C175.133 32.6267 175.407 32.7 175.7 32.7L175.32 34.1C174.04 34.1 173.267 33.58 173 32.54C172.693 32.9667 172.273 33.36 171.74 33.72C171.22 34.0667 170.553 34.24 169.74 34.24ZM170.14 32.64C170.647 32.64 171.127 32.52 171.58 32.28C172.033 32.0267 172.413 31.7133 172.72 31.34V25.76C172.36 25.5067 171.96 25.3067 171.52 25.16C171.093 25 170.64 24.92 170.16 24.92C169.52 24.92 168.953 25.0867 168.46 25.42C167.98 25.74 167.6 26.1933 167.32 26.78C167.04 27.3533 166.9 28.0267 166.9 28.8C166.9 29.5467 167.04 30.2133 167.32 30.8C167.6 31.3733 167.987 31.8267 168.48 32.16C168.973 32.48 169.527 32.64 170.14 32.64ZM177.973 38.64C177.573 38.64 177.22 38.6 176.913 38.52C176.62 38.44 176.387 38.3467 176.213 38.24L176.613 36.74C176.773 36.8333 176.973 36.9133 177.213 36.98C177.453 37.0467 177.72 37.08 178.013 37.08C178.573 37.08 179.073 36.9 179.513 36.54C179.953 36.18 180.373 35.4733 180.773 34.42L181.233 33.22H180.273L176.213 24.08L177.813 23.36L181.693 32.02L184.713 23.44L186.373 24.08L182.553 34.52C182.167 35.5867 181.747 36.42 181.293 37.02C180.84 37.62 180.34 38.04 179.793 38.28C179.247 38.52 178.64 38.64 177.973 38.64ZM188.382 34V20.04C188.929 19.9733 189.529 19.9267 190.182 19.9C190.849 19.86 191.535 19.84 192.242 19.84C193.402 19.84 194.389 20.0267 195.202 20.4C196.015 20.76 196.635 21.26 197.062 21.9C197.489 22.54 197.702 23.2733 197.702 24.1C197.702 25.1 197.455 25.9467 196.962 26.64C196.469 27.3333 195.782 27.8667 194.902 28.24C194.022 28.6 193.002 28.78 191.842 28.78C191.282 28.78 190.762 28.76 190.282 28.72V34H188.382ZM192.082 27.2C193.269 27.2 194.189 26.9333 194.842 26.4C195.495 25.8667 195.822 25.1533 195.822 24.26C195.822 23.3933 195.509 22.7067 194.882 22.2C194.255 21.6933 193.362 21.44 192.202 21.44C191.842 21.44 191.502 21.4467 191.182 21.46C190.862 21.4733 190.562 21.4933 190.282 21.52V27.1C190.495 27.1267 190.755 27.1533 191.062 27.18C191.369 27.1933 191.709 27.2 192.082 27.2ZM203.49 34.24C202.623 34.24 201.837 34.02 201.13 33.58C200.423 33.14 199.857 32.52 199.43 31.72C199.017 30.9067 198.81 29.9533 198.81 28.86C198.81 27.82 199.017 26.8867 199.43 26.06C199.857 25.2333 200.437 24.58 201.17 24.1C201.917 23.6067 202.77 23.36 203.73 23.36C204.33 23.36 204.87 23.4667 205.35 23.68C205.843 23.88 206.27 24.1333 206.63 24.44V23.6H208.27V31.48C208.27 31.9867 208.39 32.32 208.63 32.48C208.883 32.6267 209.157 32.7 209.45 32.7L209.07 34.1C207.79 34.1 207.017 33.58 206.75 32.54C206.443 32.9667 206.023 33.36 205.49 33.72C204.97 34.0667 204.303 34.24 203.49 34.24ZM203.89 32.64C204.397 32.64 204.877 32.52 205.33 32.28C205.783 32.0267 206.163 31.7133 206.47 31.34V25.76C206.11 25.5067 205.71 25.3067 205.27 25.16C204.843 25 204.39 24.92 203.91 24.92C203.27 24.92 202.703 25.0867 202.21 25.42C201.73 25.74 201.35 26.1933 201.07 26.78C200.79 27.3533 200.65 28.0267 200.65 28.8C200.65 29.5467 200.79 30.2133 201.07 30.8C201.35 31.3733 201.737 31.8267 202.23 32.16C202.723 32.48 203.277 32.64 203.89 32.64ZM215.014 34.24C214.401 34.24 213.847 34.1267 213.354 33.9C212.861 33.66 212.467 33.28 212.174 32.76C211.894 32.24 211.754 31.5667 211.754 30.74V19.2H213.554V30.56C213.554 31.28 213.701 31.8133 213.994 32.16C214.301 32.5067 214.721 32.68 215.254 32.68C215.507 32.68 215.754 32.6533 215.994 32.6C216.247 32.5333 216.461 32.46 216.634 32.38L217.074 33.84C216.834 33.9467 216.534 34.04 216.174 34.12C215.827 34.2 215.441 34.24 215.014 34.24Z" fill="black"/>
<defs>
<filter id="filter0_d_388_5784" x="167" y="53" width="37" height="26" filterUnits="userSpaceOnUse" color-interpolation-filters="sRGB">
<feFlood flood-opacity="0" result="BackgroundImageFix"/>
<feColorMatrix in="SourceAlpha" type="matrix" values="0 0 0 0 0 0 0 0 0 0 0 0 0 0 0 0 0 0 127 0" result="hardAlpha"/>
<feOffset dy="1"/>
<feGaussianBlur stdDeviation="0.5"/>
<feComposite in2="hardAlpha" operator="out"/>
<feColorMatrix type="matrix" values="0 0 0 0 0 0 0 0 0 0 0 0 0 0 0 0 0 0 0.25 0"/>
<feBlend mode="normal" in2="BackgroundImageFix" result="effect1_dropShadow_388_5784"/>
<feBlend mode="normal" in="SourceGraphic" in2="effect1_dropShadow_388_5784" result="shape"/>
</filter>
</defs>
</svg>
