<svg width="370" height="86" viewBox="0 0 370 86" fill="none" xmlns="http://www.w3.org/2000/svg">
<path d="M0 0H370V86H0V0Z" fill="white"/>
<path d="M103.08 19.16V20.38H112.34V19.16H103.08ZM102.84 24.7V25.94H112.7V24.7H102.84ZM102.84 27.48V28.72H112.66V27.48H102.84ZM103.42 34.42V35.66H112.1V34.42H103.42ZM101.2 21.92V23.18H114.22V21.92H101.2ZM102.64 30.26V36.6H104.08V31.48H111.38V36.54H112.88V30.26H102.64ZM100.52 18.26C99.36 21.3 97.4 24.28 95.38 26.18C95.66 26.54 96.08 27.32 96.22 27.66C98.44 25.44 100.58 22.08 101.94 18.7L100.52 18.26ZM98.44 23.42V36.56H99.88V22.02L99.86 22L98.44 23.42ZM118.9 19.62V21.06H131.84V19.62H118.9ZM118.9 24.28V25.7H131.82V24.28H118.9ZM118.8 29.06V30.48H131.86V29.06H118.8ZM118.06 19.62V26.86C118.06 29.68 117.84 33.24 115.64 35.72C115.96 35.92 116.56 36.42 116.8 36.72C119.18 34.06 119.54 29.92 119.54 26.88V19.62H118.06ZM131.24 19.62V34.56C131.24 34.94 131.1 35.06 130.72 35.08C130.34 35.08 128.98 35.1 127.56 35.04C127.78 35.44 128.02 36.1 128.08 36.5C129.98 36.52 131.14 36.5 131.82 36.26C132.48 36 132.72 35.54 132.72 34.56V19.62H131.24ZM124.34 20.16V36.42H125.86V20.16H124.34ZM136.04 25.58V27.06H153.98V25.58H136.04ZM144.72 21.08V22.54H151.82V21.08H144.72ZM143.82 18.2V26.28H145.38V18.2H143.82ZM143.82 26.58V36.6H145.38V26.58H143.82ZM144.94 29.92C147.2 30.56 150.22 31.66 151.76 32.42L152.54 31.08C150.92 30.3 147.88 29.3 145.68 28.72L144.94 29.92ZM166.02 18.26C166.12 27.74 167.88 36.62 171.86 36.62C173.38 36.62 173.96 35.64 174.22 32.18C173.8 32.04 173.24 31.68 172.9 31.34C172.78 34 172.56 35.06 171.98 35.06C169.54 35.06 167.58 27.4 167.62 18.26H166.02ZM168.82 19.2C170.06 19.78 171.52 20.72 172.24 21.4L173.16 20.34C172.42 19.68 170.94 18.8 169.7 18.28L168.82 19.2ZM171.44 24.32C169.86 29.36 166.98 33.2 162.82 35.44C163.14 35.72 163.74 36.32 163.96 36.62C168.16 34.1 171.18 30.08 172.92 24.68L171.44 24.32ZM156.34 21.4V22.88H173.72V21.4H156.34ZM156.24 33.7L156.52 35.24C158.86 34.74 162.14 34.02 165.2 33.34L165.08 31.9C161.82 32.6 158.42 33.28 156.24 33.7ZM158.88 25.96H162.96V29.46H158.88V25.96ZM157.5 24.66V30.74H164.44V24.66H157.5ZM181.96 25.74V26.84H188.22V25.74H181.96ZM180.66 31.84C179.8 33.54 177.92 34.82 175.82 35.58C176.14 35.84 176.62 36.38 176.82 36.66C178.98 35.72 181.04 34.24 182.06 32.16L180.66 31.84ZM185 23.42C187.04 25.36 190.66 27.32 193.62 28.3C193.82 27.92 194.16 27.4 194.46 27.08C191.36 26.18 187.86 24.4 185.6 22.26H184.22C182.54 24.18 179.16 26.16 175.74 27.3C176.02 27.6 176.34 28.12 176.52 28.44C179.84 27.24 183.2 25.22 185 23.42ZM179.78 29.04H182.8V31.02H179.78V29.04ZM178.34 27.94V32.1H184.28V27.94H178.34ZM187.08 29.04H190.2V31.02H187.08V29.04ZM185.66 27.94V32.1H191.7V27.94H185.66ZM179.86 34.08C180.9 34.56 182.22 35.36 182.9 35.94L183.8 34.86C183.1 34.32 181.8 33.56 180.74 33.12L179.86 34.08ZM187.6 31.84C186.96 33.64 185.32 34.9 183.3 35.62C183.6 35.86 184.1 36.4 184.28 36.66C186.4 35.74 188.24 34.26 189.02 32.08L187.6 31.84ZM186.96 34.16C188.98 34.78 191.5 35.84 192.86 36.62L193.86 35.5C192.44 34.78 189.94 33.74 187.94 33.14L186.96 34.16ZM178.26 19.94V21.12H184.46V19.94H178.26ZM185.82 19.94V21.12H194.16V19.94H185.82ZM178.68 18.12C178.04 19.88 176.96 21.64 175.72 22.8C176.08 23 176.68 23.4 176.96 23.62C178.14 22.36 179.34 20.44 180.08 18.48L178.68 18.12ZM186.48 18.12C185.82 19.58 184.7 21 183.44 21.94C183.78 22.14 184.4 22.54 184.66 22.78C185.9 21.76 187.16 20.14 187.9 18.48L186.48 18.12ZM179.4 20.82C179.88 21.7 180.36 22.9 180.52 23.64L181.88 23.24C181.7 22.5 181.16 21.32 180.7 20.46L179.4 20.82ZM187.74 20.82C188.48 21.66 189.28 22.84 189.6 23.6L191 23.16C190.64 22.38 189.82 21.24 189.08 20.42L187.74 20.82ZM198.94 18.24V36.62H200.24V18.24H198.94ZM196.32 22.02V32.5H197.48V23.36H202.4V22.02H196.32ZM201.78 22.02V30.8C201.78 30.96 201.74 31 201.62 31.02C201.46 31.02 201.08 31.02 200.6 31C200.78 31.36 200.98 31.94 201 32.32C201.7 32.32 202.16 32.28 202.52 32.04C202.86 31.8 202.94 31.38 202.94 30.84V22.02H201.78ZM205.32 19.08V20.32H213.22V19.08H205.32ZM205.34 21.86V23.04H212.58V21.86H205.34ZM205.34 24.62V25.8H212.58V24.62H205.34ZM203.18 27.36V28.64H214.1V27.36H203.18ZM202.76 35L203.08 36.38C204.96 36.04 207.48 35.6 209.92 35.16L209.82 33.9C207.22 34.32 204.54 34.76 202.76 35ZM208.96 27.76L207.72 27.96C208.54 32.12 210.26 35.2 213.5 36.62C213.7 36.22 214.16 35.62 214.48 35.32C211.4 34.18 209.7 31.38 208.96 27.76ZM213.04 29.1C212.16 29.98 210.6 31.16 209.54 31.86L210.4 32.72C211.5 32.02 212.98 31 214.06 30L213.04 29.1ZM204.7 19.08V28H206.12V19.08H204.7ZM204.68 27.94V35.28L206.1 35.1V27.94H204.68ZM224.92 19.66C226.76 22.14 230.24 24.88 233.34 26.48C233.6 26.04 233.96 25.52 234.32 25.16C231.18 23.76 227.72 21.08 225.6 18.18H224.06C222.52 20.7 219.2 23.66 215.74 25.4C216.06 25.72 216.48 26.24 216.66 26.6C220.04 24.8 223.26 22.04 224.92 19.66ZM219.96 24.3V25.66H230V24.3H219.96ZM217.38 28.32V29.66H232.6V28.32H217.38ZM216.46 34.64V35.96H233.56V34.64H216.46ZM224.12 24.82V35.34H225.7V24.82H224.12ZM219.04 30.68C219.84 31.8 220.62 33.36 220.88 34.36L222.18 33.8C221.9 32.8 221.08 31.28 220.26 30.18L219.04 30.68ZM229.5 30.14C229 31.28 228.06 32.88 227.34 33.86L228.48 34.36C229.22 33.42 230.16 31.98 230.92 30.72L229.5 30.14ZM249.1 18.36V23.18H250.44V18.36H249.1ZM240.26 31.74V36.04H241.4V31.74H240.26ZM245.7 34.82L246.08 36.26C248.04 35.92 250.66 35.46 253.16 34.98L253.06 33.68C250.34 34.12 247.56 34.58 245.7 34.82ZM251.34 31.16C252.16 32.9 252.88 35.22 253.04 36.64L254.3 36.28C254.12 34.84 253.36 32.58 252.5 30.84L251.34 31.16ZM247.48 23.48H252.22V28.44H247.48V23.48ZM246.24 22.18V29.76H253.5V22.18H246.24ZM238.54 22.58H243.18V24.5H238.54V22.58ZM237.24 21.52V25.58H244.58V21.52H237.24ZM236.18 19.1V20.38H245.62V19.1H236.18ZM238.5 31.44V32.52H243.26V31.44H238.5ZM236.42 26.72V36.56H237.6V27.88H244.66V26.72H236.42ZM244.1 26.72V35.14C244.1 35.34 244.04 35.42 243.82 35.42C243.62 35.44 242.94 35.44 242.18 35.42C242.34 35.74 242.5 36.24 242.54 36.58C243.62 36.58 244.32 36.56 244.76 36.36C245.22 36.14 245.34 35.8 245.34 35.16V26.72H244.1ZM241.44 27.26V29.4C241.44 30.44 241.7 30.64 242.66 30.64C242.84 30.64 243.74 30.64 243.92 30.64C244.54 30.64 244.86 30.46 244.96 29.96C244.66 29.88 244.28 29.76 244.08 29.6C244.04 29.7 243.98 29.72 243.74 29.72C243.56 29.72 242.9 29.72 242.76 29.72C242.48 29.72 242.42 29.7 242.42 29.4V27.26H241.44ZM249.2 22.68V29.08H249.12V34.84H250.46V29.08H250.36V22.68H249.2ZM239.24 27.26V27.94C239.24 28.76 239.08 29.94 237.64 30.66C237.88 30.82 238.26 31.12 238.44 31.36C240 30.42 240.2 29.08 240.2 27.98V27.26H239.24ZM256.04 25.58V27.06H273.98V25.58H256.04ZM264.72 21.08V22.54H271.82V21.08H264.72ZM263.82 18.2V26.28H265.38V18.2H263.82ZM263.82 26.58V36.6H265.38V26.58H263.82ZM264.94 29.92C267.2 30.56 270.22 31.66 271.76 32.42L272.54 31.08C270.92 30.3 267.88 29.3 265.68 28.72L264.94 29.92Z" fill="black"/>
<g filter="url(#filter0_d_388_5788)">
<rect x="115.5" y="51.5" width="34" height="23" rx="3.5" fill="white" stroke="#F3F3F3"/>
<path d="M130.54 67.46H128.21L129.667 59.0596H131.997L130.54 67.46Z" fill="#15195A"/>
<path d="M138.987 59.2649C138.527 59.0949 137.798 58.9072 136.897 58.9072C134.596 58.9072 132.975 60.0511 132.965 61.6864C132.946 62.8929 134.126 63.5631 135.008 63.9654C135.909 64.3765 136.216 64.6448 136.216 65.0112C136.206 65.574 135.487 65.8334 134.816 65.8334C133.886 65.8334 133.387 65.6996 132.63 65.3865L132.323 65.2523L131.997 67.138C132.543 67.3701 133.55 67.5761 134.596 67.5851C137.041 67.5851 138.633 66.459 138.651 64.7163C138.661 63.76 138.038 63.0273 136.695 62.4285C135.88 62.0441 135.381 61.785 135.381 61.3917C135.391 61.0342 135.803 60.668 136.723 60.668C137.481 60.6501 138.038 60.8198 138.459 60.9896L138.67 61.0788L138.987 59.2649V59.2649V59.2649Z" fill="#15195A"/>
<path fill-rule="evenodd" clip-rule="evenodd" d="M143.158 59.0596H144.96L146.84 67.4599H144.683C144.683 67.4599 144.472 66.4947 144.405 66.1998H141.413C141.326 66.4231 140.924 67.4599 140.924 67.4599H138.479L141.94 59.7566C142.18 59.2114 142.602 59.0596 143.158 59.0596ZM143.014 62.1337C143.014 62.1337 142.276 64.0014 142.084 64.484H144.021C143.925 64.064 143.484 62.0532 143.484 62.0532L143.321 61.3294C143.252 61.5158 143.153 61.772 143.086 61.9449C143.041 62.0621 143.011 62.1409 143.014 62.1337Z" fill="#15195A"/>
<path fill-rule="evenodd" clip-rule="evenodd" d="M118.113 59.0596H121.862C122.37 59.0773 122.783 59.2292 122.917 59.7657L123.732 63.625C123.732 63.6253 123.732 63.6257 123.732 63.6261L123.981 64.7879L126.263 59.0596H128.727L125.065 67.4511H122.601L120.524 60.1519C119.807 59.7614 118.989 59.4473 118.075 59.2293L118.113 59.0596Z" fill="#15195A"/>
</g>
<g filter="url(#filter1_d_388_5788)">
<rect x="168.5" y="51.5" width="34" height="23" rx="3.5" fill="white" stroke="#F3F3F3"/>
<path d="M188.704 68.3862H182.458V57.3076H188.704V68.3862Z" fill="#FF5F00"/>
<path d="M182.858 62.8459C182.858 60.5985 183.924 58.5967 185.585 57.3066C184.371 56.3632 182.838 55.8002 181.173 55.8002C177.23 55.8002 174.034 58.9546 174.034 62.8459C174.034 66.7372 177.23 69.8916 181.173 69.8916C182.838 69.8916 184.371 69.3285 185.585 68.3852C183.924 67.0951 182.858 65.0932 182.858 62.8459" fill="#EB001B"/>
<path d="M197.129 62.8459C197.129 66.7372 193.933 69.8916 189.99 69.8916C188.325 69.8916 186.793 69.3285 185.578 68.3852C187.239 67.0951 188.305 65.0932 188.305 62.8459C188.305 60.5985 187.239 58.5967 185.578 57.3066C186.793 56.3632 188.325 55.8002 189.99 55.8002C193.933 55.8002 197.129 58.9546 197.129 62.8459" fill="#F79E1B"/>
</g>
<g filter="url(#filter2_d_388_5788)">
<rect x="221.5" y="51.5" width="34" height="23" rx="3.5" fill="white" stroke="#F3F3F3"/>
<path fill-rule="evenodd" clip-rule="evenodd" d="M244.166 63.0668H244.181H244.209H244.237H244.266H244.294H244.323H244.351H244.38H244.408H244.436H244.465H244.493H244.522H244.55H244.578H244.607H244.635H244.664H244.692H244.721H244.749H244.777H244.806H244.834H244.863H244.891H244.92H244.948H244.976H245.005H245.033H245.062H245.09H245.118H245.147H245.175H245.204H245.232H245.261H245.289H245.317H245.346H245.374H245.403H245.431H245.46H245.488H245.516H245.545H245.573H245.602H245.63H245.658H245.687H245.715H245.744H245.772H245.801H245.829H245.857H245.881L245.886 63.0669C245.895 63.0671 245.904 63.0675 245.914 63.068C245.923 63.0685 245.933 63.0692 245.943 63.0699C245.952 63.0706 245.962 63.0713 245.971 63.0722C245.981 63.0731 245.99 63.074 246 63.075C246.009 63.0761 246.019 63.0772 246.028 63.0785C246.038 63.0798 246.048 63.0812 246.056 63.0827C246.063 63.0837 246.068 63.0848 246.074 63.0859L246.085 63.0884C246.094 63.0906 246.104 63.0929 246.113 63.0955C246.123 63.0981 246.132 63.1009 246.142 63.1038C246.151 63.1068 246.161 63.11 246.17 63.1134C246.18 63.1168 246.189 63.1204 246.198 63.1242C246.208 63.128 246.218 63.1321 246.227 63.1363C246.236 63.1407 246.246 63.1451 246.255 63.1499C246.265 63.1546 246.274 63.1597 246.284 63.1649C246.293 63.1702 246.303 63.1758 246.312 63.1815C246.322 63.1874 246.331 63.1935 246.341 63.1998C246.35 63.2063 246.36 63.213 246.369 63.2199C246.379 63.2271 246.388 63.2345 246.397 63.2422C246.407 63.2501 246.417 63.2583 246.426 63.2667C246.436 63.2755 246.445 63.2845 246.454 63.2938C246.464 63.3036 246.473 63.3137 246.483 63.324C246.492 63.335 246.502 63.3463 246.511 63.3579C246.521 63.3704 246.53 63.3832 246.54 63.3963C246.549 63.4108 246.559 63.4255 246.568 63.4407C246.578 63.4578 246.588 63.4754 246.596 63.4935C246.607 63.5149 246.616 63.537 246.625 63.5597C246.636 63.5902 246.646 63.6218 246.653 63.6545C246.666 63.7111 246.673 63.7707 246.673 63.8329C246.673 63.8954 246.666 63.9553 246.653 64.012C246.646 64.0448 246.636 64.0765 246.625 64.107C246.616 64.1298 246.607 64.1519 246.596 64.1734C246.588 64.1915 246.578 64.2091 246.568 64.2262C246.559 64.2414 246.55 64.2562 246.54 64.2706C246.53 64.2838 246.521 64.2966 246.511 64.3091C246.502 64.3207 246.492 64.3319 246.483 64.3429C246.473 64.3533 246.464 64.3634 246.454 64.3731C246.445 64.3824 246.436 64.3914 246.426 64.4002C246.417 64.4086 246.407 64.4167 246.397 64.4246C246.388 64.4323 246.379 64.4397 246.369 64.4468C246.36 64.4537 246.35 64.4604 246.341 64.4669C246.331 64.4732 246.322 64.4793 246.312 64.4851C246.303 64.4908 246.293 64.4964 246.284 64.5017C246.274 64.5068 246.265 64.5118 246.255 64.5166C246.246 64.5212 246.236 64.5257 246.227 64.53C246.218 64.5342 246.208 64.5382 246.198 64.5421C246.189 64.5458 246.18 64.5494 246.17 64.5528C246.161 64.5561 246.151 64.5592 246.142 64.5622C246.132 64.5651 246.123 64.5678 246.113 64.5704C246.104 64.5729 246.094 64.5752 246.085 64.5774L246.074 64.5799C246.068 64.581 246.063 64.5822 246.056 64.5833C246.048 64.5848 246.038 64.5862 246.028 64.5876C246.019 64.5888 246.009 64.59 246 64.591C245.99 64.5921 245.981 64.593 245.971 64.5938C245.962 64.5947 245.952 64.5955 245.943 64.5961C245.933 64.5968 245.923 64.5974 245.914 64.5979C245.904 64.5984 245.895 64.5988 245.886 64.599L245.871 64.5992H245.857H245.829H245.801H245.772H245.744H245.715H245.687H245.658H245.63H245.602H245.573H245.545H245.516H245.488H245.46H245.431H245.403H245.374H245.346H245.317H245.289H245.261H245.232H245.204H245.175H245.147H245.118H245.09H245.062H245.033H245.005H244.976H244.948H244.92H244.891H244.863H244.834H244.806H244.777H244.749H244.721H244.692H244.664H244.635H244.607H244.578H244.55H244.522H244.493H244.465H244.436H244.408H244.38H244.351H244.323H244.294H244.266H244.237H244.209H244.181H244.166V63.0668V63.0668ZM246.454 61.3325C246.466 61.3839 246.472 61.4384 246.472 61.4958C246.472 61.553 246.466 61.6075 246.454 61.6589C246.447 61.6919 246.437 61.7236 246.426 61.7541C246.418 61.7763 246.408 61.7978 246.398 61.8185C246.389 61.8359 246.379 61.8528 246.369 61.8692C246.36 61.8836 246.351 61.8977 246.341 61.9113C246.332 61.9237 246.322 61.9357 246.312 61.9474C246.303 61.9583 246.294 61.9688 246.284 61.9791C246.275 61.9887 246.265 61.998 246.255 62.007C246.246 62.0156 246.237 62.024 246.227 62.032C246.218 62.0398 246.208 62.0472 246.199 62.0544C246.189 62.0614 246.18 62.0681 246.17 62.0746C246.161 62.0809 246.151 62.087 246.142 62.0928C246.132 62.0985 246.123 62.1039 246.113 62.1091C246.104 62.1143 246.094 62.1192 246.085 62.1239C246.076 62.1285 246.066 62.1329 246.056 62.1371C246.047 62.1412 246.038 62.1451 246.028 62.1488C246.019 62.1525 246.009 62.1559 246 62.1592C245.99 62.1624 245.981 62.1655 245.971 62.1683C245.962 62.1711 245.952 62.1738 245.943 62.1762C245.933 62.1786 245.924 62.1808 245.914 62.1829C245.905 62.1849 245.895 62.1868 245.886 62.1884L245.879 62.1897C245.874 62.1906 245.866 62.1917 245.858 62.1927C245.849 62.1938 245.84 62.1949 245.829 62.1959C245.82 62.1968 245.811 62.1977 245.801 62.1985C245.791 62.1993 245.782 62.1999 245.772 62.2006C245.763 62.2012 245.753 62.2017 245.744 62.202C245.734 62.2024 245.724 62.2027 245.715 62.2027L245.711 62.2028H245.687H245.659H245.63H245.602H245.573H245.545H245.517H245.488H245.46H245.431H245.403H245.374H245.346H245.318H245.289H245.261H245.232H245.204H245.175H245.147H245.119H245.09H245.062H245.033H245.005H244.977H244.948H244.92H244.891H244.863H244.834H244.806H244.778H244.749H244.721H244.692H244.664H244.636H244.607H244.579H244.55H244.522H244.493H244.465H244.437H244.408H244.38H244.351H244.323H244.294H244.266H244.238H244.209H244.181H244.166V60.7887H244.181H244.209H244.238H244.266H244.294H244.323H244.351H244.38H244.408H244.437H244.465H244.493H244.522H244.55H244.579H244.607H244.636H244.664H244.692H244.721H244.749H244.778H244.806H244.834H244.863H244.891H244.92H244.948H244.977H245.005H245.033H245.062H245.09H245.119H245.147H245.175H245.204H245.232H245.261H245.289H245.318H245.346H245.374H245.403H245.431H245.46H245.488H245.517H245.545H245.573H245.602H245.63H245.659H245.687H245.715H245.727L245.744 60.7892C245.753 60.7896 245.763 60.7902 245.772 60.7908C245.782 60.7914 245.791 60.7921 245.801 60.7928C245.811 60.7936 245.82 60.7945 245.829 60.7953C245.84 60.7963 245.849 60.7973 245.858 60.7983C245.866 60.7993 245.874 60.8002 245.879 60.801L245.886 60.8022C245.895 60.8039 245.905 60.8058 245.914 60.8078C245.924 60.8099 245.933 60.8122 245.943 60.8146C245.952 60.8171 245.962 60.8197 245.971 60.8225C245.981 60.8254 245.99 60.8285 246 60.8317C246.009 60.835 246.019 60.8385 246.028 60.8422C246.038 60.8459 246.047 60.8499 246.056 60.854C246.066 60.8582 246.076 60.8626 246.085 60.8672C246.094 60.8719 246.104 60.8768 246.113 60.8819C246.123 60.8872 246.132 60.8927 246.142 60.8983C246.151 60.9042 246.161 60.9102 246.17 60.9165C246.18 60.923 246.189 60.9298 246.199 60.9368C246.208 60.944 246.218 60.9514 246.227 60.9592C246.237 60.9672 246.246 60.9756 246.255 60.9842C246.265 60.9932 246.275 61.0025 246.284 61.0122C246.294 61.0224 246.303 61.033 246.312 61.0438C246.322 61.0555 246.332 61.0676 246.341 61.08C246.351 61.0936 246.36 61.1076 246.369 61.1221C246.379 61.1384 246.389 61.1553 246.398 61.1727C246.408 61.1935 246.418 61.215 246.426 61.2372C246.437 61.2677 246.447 61.2994 246.454 61.3325ZM249.979 54H249.991L249.991 68.5229C249.991 68.6096 249.986 68.6955 249.979 68.7803C249.972 68.855 249.963 68.9288 249.95 69.0017C249.942 69.0508 249.933 69.0993 249.922 69.1475C249.913 69.1866 249.904 69.2255 249.894 69.2641C249.885 69.2973 249.875 69.3303 249.865 69.3631C249.856 69.3928 249.847 69.4223 249.837 69.4515C249.828 69.4781 249.818 69.5044 249.808 69.5306C249.799 69.5549 249.79 69.5791 249.78 69.6032C249.771 69.6258 249.761 69.6483 249.752 69.6706C249.742 69.6917 249.733 69.7128 249.723 69.7337C249.714 69.7535 249.704 69.7733 249.695 69.793C249.685 69.8118 249.676 69.8306 249.666 69.8491C249.657 69.867 249.647 69.8847 249.638 69.9023C249.629 69.9192 249.619 69.936 249.609 69.9527C249.6 69.9689 249.591 69.985 249.581 70.001C249.572 70.0166 249.562 70.032 249.553 70.0474C249.543 70.0624 249.534 70.0773 249.524 70.0921C249.515 70.1064 249.505 70.1206 249.496 70.1348C249.486 70.1485 249.477 70.1621 249.467 70.1758C249.458 70.1891 249.448 70.2024 249.439 70.2156C249.429 70.2285 249.42 70.2413 249.41 70.2541C249.401 70.2665 249.392 70.2787 249.382 70.291C249.373 70.303 249.363 70.3151 249.354 70.327C249.344 70.3386 249.335 70.3502 249.325 70.3618C249.316 70.373 249.306 70.3842 249.297 70.3953C249.287 70.4064 249.278 70.4174 249.268 70.4283C249.259 70.4389 249.249 70.4494 249.24 70.4599C249.23 70.4702 249.221 70.4805 249.211 70.4908C249.202 70.5008 249.193 70.5109 249.183 70.5208C249.174 70.5306 249.164 70.5402 249.155 70.5498C249.145 70.5594 249.136 70.569 249.126 70.5785C249.117 70.5877 249.107 70.5967 249.098 70.6058C249.088 70.6149 249.079 70.6239 249.069 70.6329C249.06 70.6416 249.05 70.6503 249.041 70.6589C249.031 70.6675 249.022 70.676 249.012 70.6845C249.003 70.6928 248.994 70.7011 248.984 70.7093C248.975 70.7175 248.965 70.7255 248.956 70.7335C248.946 70.7415 248.937 70.7494 248.927 70.7572C248.918 70.7649 248.908 70.7725 248.899 70.7801C248.889 70.7877 248.88 70.7952 248.87 70.8027C248.861 70.81 248.851 70.8172 248.842 70.8244C248.832 70.8316 248.823 70.8388 248.813 70.8459C248.804 70.8529 248.795 70.8597 248.785 70.8666C248.776 70.8734 248.766 70.8803 248.757 70.8871C248.747 70.8937 248.738 70.9002 248.728 70.9067C248.719 70.9132 248.709 70.9198 248.7 70.9261C248.69 70.9325 248.681 70.9386 248.671 70.9449C248.662 70.951 248.652 70.9572 248.643 70.9633C248.633 70.9693 248.624 70.9752 248.615 70.9811C248.605 70.987 248.596 70.9929 248.586 70.9987C248.577 71.0044 248.567 71.01 248.558 71.0156L248.529 71.0322C248.52 71.0377 248.51 71.0431 248.501 71.0485C248.491 71.0538 248.482 71.0589 248.472 71.0641C248.463 71.0693 248.453 71.0746 248.444 71.0796C248.435 71.0846 248.425 71.0895 248.416 71.0944C248.406 71.0993 248.397 71.1044 248.387 71.1092C248.378 71.114 248.368 71.1185 248.359 71.1232C248.349 71.1279 248.34 71.1325 248.33 71.1371C248.321 71.1416 248.311 71.146 248.302 71.1504L248.273 71.1635L248.245 71.1763C248.236 71.1804 248.226 71.1845 248.217 71.1885C248.207 71.1926 248.198 71.1967 248.188 71.2007C248.179 71.2046 248.169 71.2083 248.16 71.2121C248.15 71.2159 248.141 71.2199 248.131 71.2236C248.122 71.2273 248.112 71.2308 248.103 71.2344C248.093 71.238 248.084 71.2416 248.074 71.245L248.046 71.2554C248.037 71.2587 248.027 71.262 248.018 71.2653C248.008 71.2685 247.999 71.2719 247.989 71.2751C247.98 71.2782 247.97 71.2812 247.961 71.2842L247.932 71.2933C247.923 71.2962 247.913 71.2991 247.904 71.3019L247.875 71.3103C247.866 71.313 247.857 71.3158 247.847 71.3185C247.838 71.3211 247.828 71.3235 247.819 71.3261C247.809 71.3286 247.8 71.3312 247.79 71.3337L247.762 71.3407L247.733 71.3476L247.705 71.3542C247.695 71.3564 247.686 71.3583 247.676 71.3604C247.667 71.3624 247.658 71.3645 247.648 71.3665L247.62 71.3721L247.591 71.3774C247.582 71.3792 247.572 71.3811 247.563 71.3827C247.553 71.3844 247.544 71.3858 247.534 71.3874L247.506 71.392L247.477 71.3962L247.449 71.4001C247.44 71.4014 247.43 71.4029 247.421 71.4041C247.411 71.4052 247.402 71.4062 247.392 71.4073C247.383 71.4084 247.373 71.4095 247.364 71.4105C247.354 71.4115 247.345 71.4125 247.335 71.4134C247.326 71.4143 247.316 71.4151 247.307 71.4159C247.297 71.4167 247.288 71.4176 247.278 71.4184C247.269 71.4191 247.26 71.4197 247.25 71.4203L247.222 71.4221C247.212 71.4227 247.203 71.4233 247.193 71.4238C247.184 71.4243 247.174 71.4245 247.165 71.4249L247.136 71.4259L247.108 71.4266C247.099 71.4269 247.089 71.4269 247.08 71.427L247.051 71.4274L247.045 71.4274H247.023H246.994H246.966H246.937H246.909H246.881H246.852H246.824H246.795H246.767H246.738H246.71H246.682H246.653H246.625H246.596H246.568H246.539H246.511H246.483H246.454H246.426H246.397H246.369H246.34H246.312H246.284H246.255H246.227H246.198H246.17H246.141H246.113H246.085H246.056H246.028H245.999H245.971H245.943H245.914H245.886H245.857H245.829H245.8H245.772H245.744H245.715H245.687H245.658H245.63H245.601H245.573H245.545H245.516H245.488H245.459H245.431H245.402H245.374H245.346H245.317H245.289H245.26H245.232H245.203H245.175H245.147H245.118H245.09H245.061H245.033H245.004H244.976H244.948H244.919H244.891H244.862H244.834H244.806H244.777H244.749H244.72H244.692H244.663H244.635H244.607H244.578H244.55H244.521H244.493H244.464H244.436H244.408H244.379H244.351H244.322H244.294H244.265H244.237H244.209H244.18H244.152H244.123H244.095H244.066H244.038H244.01H243.981H243.953H243.924H243.896H243.867H243.839H243.811H243.782H243.754H243.725H243.697H243.668H243.64H243.612H243.583H243.555H243.526H243.498H243.469H243.441H243.413H243.384H243.356H243.327H243.299H243.271H243.242H243.214H243.185H243.157H243.128H243.1H243.072H243.043H243.015H242.986H242.958H242.929H242.901H242.873H242.844H242.816H242.787H242.726V65.506H242.787H242.816H242.844H242.873H242.901H242.929H242.958H242.986H243.015H243.043H243.072H243.1H243.128H243.157H243.185H243.214H243.242H243.271H243.299H243.327H243.356H243.384H243.413H243.441H243.469H243.498H243.526H243.555H243.583H243.612H243.64H243.668H243.697H243.725H243.754H243.782H243.811H243.839H243.867H243.896H243.924H243.953H243.981H244.01H244.038H244.066H244.095H244.123H244.152H244.18H244.209H244.237H244.265H244.294H244.322H244.351H244.379H244.408H244.436H244.464H244.493H244.521H244.55H244.578H244.607H244.635H244.663H244.692H244.72H244.749H244.777H244.806H244.834H244.862H244.891H244.919H244.948H244.976H245.004H245.033H245.061H245.09H245.118H245.147H245.175H245.203H245.232H245.26H245.289H245.317H245.346H245.374H245.402H245.431H245.459H245.488H245.516H245.545H245.573H245.601H245.63H245.658H245.687H245.715H245.744H245.772H245.8H245.829H245.857H245.886H245.914H245.943H245.971H245.999H246.028H246.056H246.085H246.113H246.141H246.17H246.198H246.227H246.255H246.284H246.312H246.34H246.369H246.397H246.426H246.454H246.483H246.511H246.539H246.568H246.596H246.625H246.653H246.682H246.71H246.738H246.767H246.795H246.824H246.852H246.881H246.909H246.937H246.966H246.994H247.023H247.051H247.08H247.108H247.136H247.165H247.193H247.222H247.25H247.278H247.294L247.307 65.5058L247.335 65.5056L247.364 65.505C247.373 65.5048 247.383 65.5047 247.392 65.5043C247.402 65.504 247.411 65.5036 247.421 65.5031L247.449 65.5018L247.477 65.5001L247.506 65.4982L247.534 65.496L247.563 65.4935C247.572 65.4926 247.582 65.4917 247.591 65.4907C247.601 65.4898 247.61 65.4886 247.62 65.4876L247.648 65.4841C247.658 65.4829 247.667 65.4818 247.676 65.4805C247.686 65.4792 247.695 65.4777 247.705 65.4763C247.714 65.4749 247.724 65.4735 247.733 65.472L247.762 65.4673L247.79 65.4622C247.8 65.4605 247.809 65.4588 247.819 65.457C247.828 65.4551 247.838 65.4531 247.847 65.4512L247.875 65.4451C247.885 65.443 247.894 65.4409 247.904 65.4387C247.913 65.4365 247.923 65.4342 247.932 65.4319C247.942 65.4295 247.951 65.4272 247.961 65.4247C247.97 65.4223 247.98 65.4198 247.989 65.4172C247.999 65.4146 248.008 65.4119 248.018 65.4092C248.027 65.4065 248.037 65.4037 248.046 65.4009L248.074 65.3921C248.084 65.3891 248.093 65.386 248.103 65.3829C248.112 65.3797 248.122 65.3765 248.131 65.3733C248.141 65.37 248.15 65.3667 248.16 65.3632C248.169 65.3598 248.179 65.3562 248.188 65.3526C248.198 65.3489 248.207 65.3453 248.217 65.3415C248.226 65.3377 248.236 65.334 248.245 65.3301C248.255 65.3261 248.264 65.3221 248.273 65.318C248.283 65.3139 248.292 65.3096 248.302 65.3054C248.311 65.301 248.321 65.2967 248.33 65.2923C248.34 65.2878 248.349 65.2832 248.359 65.2786C248.368 65.2739 248.378 65.2691 248.387 65.2643C248.397 65.2594 248.406 65.2543 248.416 65.2492C248.425 65.2441 248.435 65.2389 248.444 65.2337C248.454 65.2283 248.463 65.2229 248.472 65.2174C248.482 65.2118 248.491 65.2062 248.501 65.2004C248.51 65.1946 248.52 65.1886 248.529 65.1826C248.539 65.1765 248.548 65.1702 248.558 65.1639C248.567 65.1576 248.577 65.151 248.586 65.1445C248.596 65.1378 248.605 65.131 248.615 65.1241C248.624 65.1171 248.634 65.11 248.643 65.1028C248.653 65.0954 248.662 65.0879 248.671 65.0804C248.681 65.0726 248.69 65.0648 248.7 65.0569C248.709 65.0488 248.719 65.0405 248.728 65.0322C248.738 65.0236 248.747 65.0149 248.757 65.0061C248.766 64.997 248.776 64.9878 248.785 64.9785C248.795 64.9689 248.804 64.9592 248.813 64.9494C248.823 64.9392 248.833 64.9288 248.842 64.9184C248.852 64.9076 248.861 64.8966 248.87 64.8854C248.88 64.8738 248.889 64.8621 248.899 64.8502C248.908 64.8378 248.918 64.8253 248.927 64.8125C248.937 64.799 248.946 64.7852 248.956 64.7713C248.965 64.7565 248.975 64.7416 248.984 64.7265C248.994 64.7103 249.003 64.6938 249.012 64.6771C249.022 64.659 249.032 64.6406 249.041 64.622C249.051 64.6011 249.06 64.5799 249.069 64.5585C249.08 64.5338 249.089 64.5089 249.098 64.4835C249.108 64.4521 249.118 64.4202 249.126 64.3877C249.138 64.3402 249.148 64.2914 249.155 64.2414C249.163 64.1808 249.167 64.1185 249.167 64.0545C249.167 63.9922 249.163 63.9316 249.155 63.8728C249.148 63.8245 249.138 63.7774 249.126 63.7315C249.118 63.7003 249.108 63.6696 249.098 63.6396C249.089 63.6149 249.08 63.5906 249.069 63.5668C249.06 63.5461 249.051 63.5258 249.041 63.5057C249.032 63.4877 249.022 63.4699 249.012 63.4524C249.003 63.4363 248.994 63.4203 248.984 63.4047C248.975 63.3901 248.965 63.3757 248.956 63.3616C248.946 63.3482 248.937 63.3349 248.927 63.3218C248.918 63.3095 248.908 63.2974 248.899 63.2854C248.889 63.274 248.88 63.2626 248.87 63.2514C248.861 63.2407 248.852 63.2301 248.842 63.2196C248.833 63.2095 248.823 63.1995 248.813 63.1897C248.804 63.1802 248.795 63.1709 248.785 63.1616C248.776 63.1527 248.766 63.1438 248.757 63.1351C248.747 63.1266 248.738 63.1182 248.728 63.11C248.719 63.1019 248.709 63.0939 248.7 63.0861C248.69 63.0784 248.681 63.0708 248.671 63.0633C248.662 63.0561 248.653 63.0488 248.643 63.0417C248.634 63.0347 248.624 63.0279 248.615 63.0211C248.605 63.0144 248.596 63.0079 248.586 63.0014C248.577 62.995 248.567 62.9887 248.558 62.9825C248.548 62.9764 248.539 62.9704 248.529 62.9645C248.52 62.9587 248.51 62.9529 248.501 62.9473C248.491 62.9417 248.482 62.9362 248.472 62.9308C248.463 62.9255 248.454 62.9202 248.444 62.9151C248.435 62.9099 248.425 62.9049 248.416 62.9C248.406 62.8951 248.397 62.8902 248.387 62.8855C248.378 62.8808 248.368 62.8761 248.359 62.8715C248.349 62.867 248.34 62.8625 248.33 62.8581C248.321 62.8538 248.311 62.8496 248.302 62.8454C248.292 62.8413 248.283 62.8372 248.273 62.8332C248.264 62.8292 248.254 62.8253 248.245 62.8215C248.236 62.8177 248.226 62.8138 248.217 62.8101C248.207 62.8065 248.198 62.8029 248.188 62.7994C248.179 62.7959 248.169 62.7925 248.16 62.7891C248.15 62.7858 248.141 62.7825 248.131 62.7793C248.122 62.7761 248.112 62.7729 248.103 62.7698C248.093 62.7667 248.084 62.7637 248.074 62.7607C248.065 62.7578 248.055 62.755 248.046 62.7522L248.018 62.7439C248.008 62.7413 247.999 62.7386 247.989 62.736C247.98 62.7335 247.97 62.7311 247.961 62.7287C247.951 62.7262 247.942 62.7239 247.932 62.7216C247.923 62.7193 247.913 62.717 247.904 62.7148C247.894 62.7126 247.885 62.7105 247.875 62.7085C247.866 62.7064 247.857 62.7044 247.847 62.7025C247.838 62.7005 247.828 62.6986 247.819 62.6967L247.79 62.6914L247.762 62.6864C247.752 62.6847 247.743 62.6831 247.733 62.6816L247.705 62.6772C247.695 62.6758 247.686 62.6744 247.676 62.6731L247.648 62.6693L247.62 62.6658L247.591 62.6626L247.563 62.6597L247.534 62.6571L247.506 62.6547L247.48 62.6527L247.48 62.6191L247.506 62.6151L247.534 62.6105C247.544 62.6089 247.553 62.6073 247.563 62.6056L247.591 62.6002C247.601 62.5983 247.61 62.5964 247.62 62.5944L247.648 62.5883C247.658 62.5862 247.667 62.5841 247.676 62.5818C247.686 62.5796 247.695 62.5772 247.705 62.5748C247.714 62.5724 247.724 62.5699 247.733 62.5674C247.743 62.5648 247.752 62.5622 247.762 62.5596C247.771 62.5569 247.781 62.5542 247.79 62.5513C247.8 62.5485 247.809 62.5456 247.819 62.5426C247.828 62.5396 247.838 62.5365 247.847 62.5333C247.857 62.5302 247.866 62.5269 247.875 62.5236C247.885 62.5202 247.894 62.5168 247.904 62.5134C247.913 62.5098 247.923 62.5062 247.932 62.5026C247.942 62.4989 247.951 62.4951 247.961 62.4913C247.97 62.4874 247.98 62.4834 247.989 62.4794C247.999 62.4753 248.008 62.4711 248.018 62.4668C248.027 62.4625 248.037 62.4581 248.046 62.4537C248.056 62.4491 248.065 62.4445 248.074 62.4398C248.084 62.4351 248.093 62.4302 248.103 62.4253C248.112 62.4203 248.122 62.4153 248.131 62.4101C248.141 62.4049 248.15 62.3995 248.16 62.3942C248.169 62.3886 248.179 62.383 248.188 62.3774C248.198 62.3716 248.207 62.3657 248.217 62.3598C248.226 62.3537 248.236 62.3475 248.245 62.3413C248.255 62.3349 248.264 62.3284 248.273 62.3218C248.283 62.3151 248.292 62.3083 248.302 62.3014C248.311 62.2943 248.321 62.2871 248.33 62.2799C248.34 62.2724 248.349 62.2648 248.359 62.2572C248.368 62.2493 248.378 62.2413 248.387 62.2332C248.397 62.2248 248.406 62.2163 248.416 62.2077C248.425 62.1989 248.435 62.1899 248.444 62.1809C248.454 62.1715 248.463 62.162 248.472 62.1524C248.482 62.1423 248.492 62.1322 248.501 62.1219C248.51 62.1113 248.52 62.1004 248.529 62.0895C248.539 62.078 248.548 62.0664 248.558 62.0547C248.567 62.0423 248.577 62.0297 248.586 62.017C248.596 62.0036 248.605 61.99 248.615 61.9762C248.624 61.9615 248.634 61.9467 248.643 61.9317C248.653 61.9154 248.662 61.8989 248.671 61.8822C248.681 61.8639 248.691 61.8454 248.7 61.8266C248.71 61.8055 248.719 61.7841 248.728 61.7625C248.739 61.7373 248.748 61.7118 248.757 61.6859C248.767 61.6534 248.777 61.6204 248.785 61.5869C248.798 61.5326 248.808 61.4772 248.813 61.4208C248.818 61.3764 248.821 61.3313 248.821 61.2858C248.821 61.2377 248.818 61.1908 248.813 61.1451C248.808 61.0867 248.798 61.0303 248.785 60.9758C248.777 60.9418 248.767 60.9086 248.757 60.8761C248.748 60.8502 248.739 60.8247 248.728 60.7998C248.719 60.7783 248.71 60.7572 248.7 60.7364C248.691 60.7179 248.681 60.6997 248.671 60.6819C248.662 60.6655 248.653 60.6493 248.643 60.6335C248.634 60.6187 248.624 60.6042 248.615 60.5898C248.605 60.5764 248.596 60.5632 248.586 60.5502C248.577 60.5379 248.567 60.5258 248.558 60.5138C248.548 60.5024 248.539 60.491 248.529 60.4799C248.52 60.4693 248.51 60.459 248.501 60.4487C248.492 60.4388 248.482 60.429 248.472 60.4194C248.463 60.4101 248.454 60.4009 248.444 60.3919C248.435 60.3831 248.425 60.3744 248.416 60.3659C248.406 60.3577 248.397 60.3495 248.387 60.3415C248.378 60.3337 248.368 60.326 248.359 60.3184C248.349 60.311 248.34 60.3037 248.33 60.2965C248.321 60.2895 248.311 60.2826 248.302 60.2758C248.292 60.2691 248.283 60.2625 248.273 60.2561C248.264 60.2497 248.255 60.2435 248.245 60.2374C248.236 60.2313 248.226 60.2254 248.217 60.2195C248.207 60.2138 248.198 60.2081 248.188 60.2025C248.179 60.1971 248.169 60.1917 248.16 60.1863C248.15 60.1811 248.141 60.176 248.131 60.1709C248.122 60.1659 248.112 60.161 248.103 60.1562C248.093 60.1514 248.084 60.1467 248.074 60.1421C248.065 60.1375 248.056 60.133 248.046 60.1286C248.037 60.1243 248.027 60.12 248.018 60.1158C248.008 60.1116 247.999 60.1076 247.989 60.1036C247.98 60.0997 247.97 60.0958 247.961 60.092C247.951 60.0882 247.942 60.0845 247.932 60.0808C247.923 60.0772 247.913 60.0737 247.904 60.0702C247.894 60.0667 247.885 60.0634 247.875 60.06C247.866 60.0568 247.857 60.0536 247.847 60.0504C247.838 60.0473 247.828 60.0443 247.819 60.0413C247.809 60.0383 247.8 60.0354 247.79 60.0325C247.781 60.0297 247.771 60.0268 247.762 60.0241C247.752 60.0214 247.743 60.0189 247.733 60.0163C247.724 60.0138 247.714 60.0113 247.705 60.0089L247.676 60.0017C247.667 59.9994 247.658 59.9972 247.648 59.995C247.639 59.9928 247.629 59.9907 247.62 59.9887L247.591 59.9827C247.582 59.9808 247.572 59.9788 247.563 59.977C247.553 59.9752 247.544 59.9735 247.534 59.9718L247.506 59.9669C247.496 59.9653 247.487 59.9637 247.477 59.9622L247.449 59.958L247.421 59.954L247.392 59.9503L247.364 59.947L247.335 59.944L247.307 59.9411L247.278 59.9387L247.25 59.9365L247.222 59.9345L247.193 59.9329L247.182 59.9323L247.165 59.9312L247.136 59.9296L247.108 59.928L247.08 59.9266L247.051 59.9252L247.023 59.924L246.994 59.923L246.966 59.9221L246.937 59.9215L246.909 59.9211L246.893 59.9211H246.881H246.852H246.824H246.795H246.767H246.738H246.71H246.682H246.653H246.625H246.596H246.568H246.539H246.511H246.483H246.454H246.426H246.397H246.369H246.34H246.312H246.284H246.255H246.227H246.198H246.17H246.141H246.113H246.085H246.056H246.028H245.999H245.971H245.943H245.914H245.886H245.857H245.829H245.8H245.772H245.744H245.715H245.687H245.658H245.63H245.601H245.573H245.545H245.516H245.488H245.459H245.431H245.402H245.374H245.346H245.317H245.289H245.26H245.232H245.203H245.175H245.147H245.118H245.09H245.061H245.033H245.004H244.976H244.948H244.919H244.891H244.862H244.834H244.806H244.777H244.749H244.72H244.692H244.663H244.635H244.607H244.578H244.55H244.521H244.493H244.464H244.436H244.408H244.379H244.351H244.322H244.294H244.265H244.237H244.209H244.18H244.152H244.123H244.095H244.066H244.038H244.01H243.981H243.953H243.924H243.896H243.867H243.839H243.811H243.782H243.754H243.725H243.697H243.668H243.64H243.612H243.583H243.555H243.526H243.498H243.469H243.441H243.413H243.384H243.356H243.327H243.299H243.271H243.242H243.214H243.185H243.157H243.128H243.1H243.072H243.043H243.015H242.986H242.958H242.929H242.901H242.873H242.844H242.816H242.787H242.726V56.9048C242.726 56.7019 242.747 56.5039 242.787 56.3127C242.796 56.2718 242.805 56.2312 242.816 56.1909C242.825 56.1564 242.834 56.1222 242.844 56.0883C242.853 56.058 242.863 56.0278 242.873 55.9979C242.882 55.9706 242.891 55.9434 242.901 55.9165C242.91 55.8915 242.92 55.8666 242.929 55.8419C242.939 55.8189 242.948 55.7959 242.958 55.7732C242.967 55.7517 242.977 55.7304 242.986 55.7091C242.995 55.689 243.005 55.669 243.015 55.6491C243.024 55.6301 243.033 55.6113 243.043 55.5925C243.052 55.5745 243.062 55.5566 243.072 55.5388C243.081 55.5216 243.09 55.5045 243.1 55.4876C243.109 55.4711 243.119 55.4548 243.128 55.4386C243.138 55.4228 243.147 55.4071 243.157 55.3916C243.166 55.3765 243.176 55.3616 243.185 55.3467C243.195 55.3322 243.204 55.3179 243.214 55.3037C243.223 55.2898 243.232 55.2759 243.242 55.2621C243.251 55.2486 243.261 55.2351 243.271 55.2217C243.28 55.2088 243.289 55.1961 243.299 55.1833C243.308 55.1708 243.318 55.1583 243.327 55.1459C243.337 55.1337 243.346 55.1215 243.356 55.1094C243.365 55.0977 243.375 55.0862 243.384 55.0746C243.394 55.0632 243.403 55.0519 243.413 55.0407C243.422 55.0296 243.431 55.0185 243.441 55.0075C243.45 54.9968 243.46 54.9863 243.469 54.9757C243.479 54.9653 243.488 54.9548 243.498 54.9445C243.507 54.9344 243.517 54.9244 243.526 54.9144C243.536 54.9045 243.545 54.8947 243.555 54.885C243.564 54.8754 243.574 54.8658 243.583 54.8563C243.593 54.847 243.602 54.8378 243.612 54.8287C243.621 54.8195 243.63 54.8103 243.64 54.8013C243.649 54.7925 243.659 54.7839 243.668 54.7752C243.678 54.7666 243.687 54.7579 243.697 54.7494C243.706 54.741 243.716 54.7328 243.725 54.7245C243.735 54.7163 243.744 54.7081 243.754 54.7C243.763 54.6921 243.773 54.6842 243.782 54.6764C243.792 54.6686 243.801 54.6608 243.811 54.6531C243.82 54.6455 243.83 54.638 243.839 54.6306L243.867 54.6085L243.896 54.5871C243.905 54.58 243.915 54.573 243.924 54.5661C243.934 54.5592 243.943 54.5524 243.953 54.5456L243.981 54.5257C243.991 54.5192 244 54.5127 244.01 54.5063L244.038 54.4873L244.066 54.4689C244.076 54.4628 244.085 54.4567 244.095 54.4508L244.123 54.4333C244.133 54.4275 244.142 54.4217 244.152 54.416C244.161 54.4104 244.171 54.405 244.18 54.3994C244.19 54.3939 244.199 54.3884 244.209 54.383C244.218 54.3777 244.228 54.3725 244.237 54.3673C244.246 54.3621 244.256 54.3568 244.265 54.3517C244.275 54.3466 244.284 54.3417 244.294 54.3368C244.303 54.3318 244.313 54.3269 244.322 54.322C244.332 54.3172 244.341 54.3125 244.351 54.3078C244.36 54.3032 244.37 54.2985 244.379 54.2939L244.408 54.2803C244.417 54.2759 244.426 54.2716 244.436 54.2672C244.445 54.2629 244.455 54.2585 244.464 54.2543C244.474 54.2501 244.483 54.2461 244.493 54.242C244.502 54.2379 244.512 54.2338 244.521 54.2298C244.531 54.2258 244.54 54.2221 244.55 54.2182C244.559 54.2144 244.569 54.2105 244.578 54.2068L244.607 54.1957L244.635 54.1851C244.644 54.1815 244.654 54.1779 244.663 54.1745C244.673 54.1711 244.682 54.1679 244.692 54.1646C244.701 54.1614 244.711 54.158 244.72 54.1548C244.73 54.1516 244.739 54.1486 244.749 54.1455L244.777 54.1364C244.787 54.1334 244.796 54.1304 244.806 54.1276C244.815 54.1247 244.824 54.122 244.834 54.1192C244.843 54.1165 244.853 54.1136 244.862 54.1109C244.872 54.1083 244.881 54.1058 244.891 54.1032C244.9 54.1007 244.91 54.0981 244.919 54.0956L244.948 54.0884C244.957 54.086 244.967 54.0838 244.976 54.0816C244.986 54.0793 244.995 54.0769 245.004 54.0747C245.014 54.0726 245.023 54.0706 245.033 54.0686L245.061 54.0625L245.09 54.0567C245.099 54.0548 245.109 54.0531 245.118 54.0513C245.128 54.0495 245.137 54.0476 245.147 54.0459C245.156 54.0442 245.166 54.0428 245.175 54.0412L245.203 54.0366C245.213 54.0351 245.222 54.0335 245.232 54.0321C245.241 54.0307 245.251 54.0295 245.26 54.0282C245.27 54.0269 245.279 54.0255 245.289 54.0243C245.298 54.0231 245.308 54.022 245.317 54.0209L245.346 54.0177C245.355 54.0167 245.364 54.0155 245.374 54.0146C245.383 54.0137 245.393 54.0129 245.402 54.0121L245.431 54.0096L245.459 54.0075C245.469 54.0068 245.478 54.0063 245.488 54.0057C245.497 54.0052 245.507 54.0044 245.516 54.004C245.526 54.0035 245.535 54.0032 245.545 54.0028L245.573 54.0017C245.582 54.0014 245.592 54.001 245.601 54.0008C245.611 54.0006 245.62 54.0006 245.63 54.0005C245.639 54.0003 245.649 54.0002 245.658 54.0001L245.665 54H245.687H245.715H245.744H245.772H245.8H245.829H245.857H245.886H245.914H245.943H245.971H245.999H246.028H246.056H246.085H246.113H246.141H246.17H246.198H246.227H246.255H246.284H246.312H246.34H246.369H246.397H246.426H246.454H246.483H246.511H246.539H246.568H246.596H246.625H246.653H246.682H246.71H246.738H246.767H246.795H246.824H246.852H246.881H246.909H246.937H246.966H246.994H247.023H247.051H247.08H247.108H247.136H247.165H247.193H247.222H247.25H247.278H247.307H247.335H247.364H247.392H247.421H247.449H247.477H247.506H247.534H247.563H247.591H247.62H247.648H247.676H247.705H247.733H247.762H247.79H247.819H247.847H247.875H247.904H247.932H247.961H247.989H248.018H248.046H248.074H248.103H248.131H248.16H248.188H248.217H248.245H248.273H248.302H248.33H248.359H248.387H248.416H248.444H248.472H248.501H248.529H248.558H248.586H248.615H248.643H248.671H248.7H248.728H248.757H248.785H248.813H248.842H248.87H248.899H248.927H248.956H248.984H249.012H249.041H249.069H249.098H249.126H249.155H249.183H249.211H249.24H249.268H249.297H249.325H249.354H249.382H249.41H249.439H249.467H249.496H249.524H249.553H249.581H249.609H249.638H249.666H249.695H249.723H249.752H249.78H249.808H249.837H249.865H249.894H249.922H249.95H249.979V54V54Z" fill="#54B230"/>
<path fill-rule="evenodd" clip-rule="evenodd" d="M226.431 64.0782V56.9048C226.431 56.7025 226.452 56.5049 226.492 56.3143C226.501 56.2733 226.51 56.2328 226.52 56.1925C226.529 56.158 226.539 56.1237 226.549 56.0897C226.558 56.0594 226.567 56.0294 226.577 55.9995C226.586 55.9721 226.596 55.9449 226.605 55.9179C226.615 55.8929 226.624 55.8681 226.634 55.8434C226.643 55.8204 226.652 55.7974 226.662 55.7746C226.671 55.7532 226.681 55.7318 226.691 55.7107C226.7 55.6905 226.709 55.6705 226.719 55.6506C226.728 55.6316 226.738 55.6128 226.747 55.594C226.757 55.576 226.766 55.5581 226.776 55.5403C226.785 55.5231 226.794 55.506 226.804 55.4891C226.813 55.4726 226.823 55.4563 226.832 55.4401C226.842 55.4243 226.851 55.4086 226.861 55.3931C226.87 55.378 226.88 55.3631 226.889 55.3482C226.899 55.3338 226.908 55.3195 226.918 55.3052C226.927 55.2913 226.936 55.2774 226.946 55.2636C226.955 55.2501 226.965 55.2366 226.974 55.2232C226.984 55.2103 226.993 55.1976 227.003 55.1848C227.012 55.1723 227.022 55.1598 227.031 55.1475C227.041 55.1353 227.05 55.123 227.059 55.111C227.069 55.0993 227.078 55.0878 227.088 55.0762C227.097 55.0648 227.107 55.0535 227.116 55.0422C227.126 55.0311 227.135 55.0201 227.145 55.0091C227.154 54.9984 227.163 54.9879 227.173 54.9773C227.182 54.9668 227.192 54.9564 227.201 54.946C227.211 54.9359 227.22 54.926 227.23 54.916C227.239 54.9061 227.249 54.8963 227.258 54.8866C227.268 54.877 227.277 54.8674 227.286 54.8579C227.296 54.8486 227.305 54.8394 227.315 54.8303C227.324 54.8211 227.334 54.8119 227.343 54.8029C227.353 54.7941 227.362 54.7855 227.372 54.7768C227.381 54.7682 227.39 54.7595 227.4 54.751C227.409 54.7426 227.419 54.7344 227.428 54.7261C227.438 54.7179 227.447 54.7097 227.457 54.7016C227.466 54.6937 227.476 54.6858 227.485 54.678C227.495 54.6702 227.504 54.6624 227.513 54.6547C227.523 54.6472 227.532 54.6397 227.542 54.6322C227.551 54.6248 227.561 54.6174 227.57 54.6101C227.58 54.6029 227.589 54.5958 227.599 54.5887C227.608 54.5816 227.617 54.5746 227.627 54.5677L227.655 54.5473C227.665 54.5406 227.674 54.5339 227.684 54.5273C227.693 54.5208 227.703 54.5143 227.712 54.5079C227.722 54.5015 227.731 54.4952 227.74 54.4889C227.75 54.4827 227.759 54.4766 227.769 54.4705C227.778 54.4644 227.788 54.4583 227.797 54.4523C227.807 54.4464 227.816 54.4406 227.826 54.4348C227.835 54.4291 227.844 54.4232 227.854 54.4175C227.863 54.4119 227.873 54.4065 227.882 54.401C227.892 54.3955 227.901 54.3899 227.911 54.3845C227.92 54.3791 227.93 54.3741 227.939 54.3688C227.949 54.3636 227.958 54.3583 227.967 54.3532C227.977 54.3481 227.986 54.3432 227.996 54.3383C228.005 54.3333 228.015 54.3283 228.024 54.3235C228.034 54.3187 228.043 54.314 228.053 54.3092L228.081 54.2954C228.09 54.2908 228.1 54.2862 228.109 54.2817C228.119 54.2773 228.128 54.273 228.138 54.2687C228.147 54.2643 228.157 54.2599 228.166 54.2556C228.175 54.2514 228.185 54.2475 228.194 54.2434C228.204 54.2393 228.213 54.2351 228.223 54.2312C228.232 54.2272 228.242 54.2234 228.251 54.2195L228.28 54.2081L228.308 54.197L228.336 54.1864C228.346 54.1828 228.355 54.1792 228.365 54.1757C228.374 54.1723 228.384 54.1692 228.393 54.1659C228.403 54.1626 228.412 54.1592 228.421 54.156L228.45 54.1467L228.478 54.1376C228.488 54.1346 228.497 54.1316 228.507 54.1287C228.516 54.1258 228.526 54.1231 228.535 54.1203C228.544 54.1176 228.554 54.1147 228.563 54.112C228.573 54.1093 228.582 54.1069 228.592 54.1043L228.62 54.0967C228.63 54.0942 228.639 54.0917 228.648 54.0893C228.658 54.087 228.667 54.0848 228.677 54.0825C228.686 54.0803 228.696 54.0779 228.705 54.0757C228.715 54.0735 228.724 54.0715 228.734 54.0695L228.762 54.0634C228.771 54.0614 228.781 54.0593 228.79 54.0575C228.8 54.0556 228.809 54.0539 228.819 54.0521C228.828 54.0503 228.838 54.0484 228.847 54.0468C228.857 54.0451 228.866 54.0435 228.875 54.0419L228.904 54.0373C228.913 54.0358 228.923 54.0342 228.932 54.0328C228.942 54.0313 228.951 54.0302 228.961 54.0288C228.97 54.0275 228.979 54.0261 228.989 54.0249L229.017 54.0214L229.046 54.0182C229.055 54.0172 229.065 54.016 229.074 54.015C229.084 54.0141 229.093 54.0134 229.102 54.0125L229.131 54.01C229.14 54.0092 229.15 54.0085 229.159 54.0078C229.169 54.0071 229.178 54.0066 229.188 54.006C229.197 54.0054 229.207 54.0048 229.216 54.0043C229.225 54.0037 229.235 54.0034 229.244 54.003L229.273 54.0019C229.282 54.0016 229.292 54.0011 229.301 54.0009C229.311 54.0006 229.32 54.0007 229.329 54.0005C229.339 54.0004 229.348 54.0002 229.358 54.0002L229.386 54H229.415H229.443H229.471H229.5H229.528H229.556H229.585H229.613H229.642H229.67H229.698H229.727H229.755H229.783H229.812H229.84H229.869H229.897H229.925H229.954H229.982H230.01H230.039H230.067H230.096H230.124H230.152H230.181H230.209H230.237H230.266H230.294H230.323H230.351H230.379H230.408H230.436H230.464H230.493H230.521H230.55H230.578H230.606H230.635H230.663H230.691H230.72H230.748H230.777H230.805H230.833H230.862H230.89H230.918H230.947H230.975H231.004H231.032H231.06H231.089H231.117H231.145H231.174H231.202H231.231H231.259H231.287H231.316H231.344H231.372H231.401H231.429H231.458H231.486H231.514H231.543H231.571H231.599H231.628H231.656H231.685H231.713H231.741H231.77H231.798H231.826H231.855H231.883H231.912H231.94H231.968H231.997H232.025H232.053H232.082H232.11H232.139H232.167H232.195H232.224H232.252H232.28H232.309H232.337H232.366H232.394H232.422H232.451H232.479H232.507H232.536H232.564H232.593H232.621H232.649H232.678H232.706H232.734H232.763H232.791H232.82H232.848H232.876H232.905H232.933H232.961H232.99H233.018H233.047H233.075H233.103H233.132H233.16H233.188H233.217H233.245H233.274H233.302H233.33H233.359H233.387H233.415H233.444H233.472H233.501H233.529H233.557H233.586H233.614H233.642H233.671H233.695V68.5229C233.695 68.6492 233.687 68.7737 233.671 68.8957C233.663 68.9545 233.654 69.0127 233.642 69.0703C233.634 69.1141 233.625 69.1576 233.614 69.2007C233.605 69.2371 233.596 69.2731 233.586 69.3089C233.577 69.3403 233.567 69.3715 233.557 69.4024C233.548 69.4304 233.539 69.4582 233.529 69.4859C233.52 69.5115 233.51 69.5369 233.501 69.5622C233.491 69.5857 233.482 69.6092 233.472 69.6324C233.463 69.6544 233.454 69.6762 233.444 69.6978C233.435 69.7183 233.425 69.7387 233.415 69.7591C233.406 69.7784 233.397 69.7976 233.387 69.8167C233.378 69.8351 233.368 69.8533 233.359 69.8715C233.349 69.8889 233.34 69.9063 233.33 69.9235C233.321 69.9402 233.312 69.9568 233.302 69.9733C233.293 69.9892 233.283 70.005 233.274 70.0207C233.264 70.0359 233.255 70.0509 233.245 70.0659C233.236 70.0806 233.226 70.0952 233.217 70.1096C233.207 70.1238 233.198 70.1379 233.188 70.1519C233.179 70.1654 233.17 70.1789 233.16 70.1923C233.151 70.2053 233.141 70.2183 233.132 70.2313C233.122 70.244 233.113 70.2566 233.103 70.2692C233.094 70.2814 233.085 70.2936 233.075 70.3057C233.066 70.3176 233.056 70.3293 233.047 70.341C233.037 70.3525 233.028 70.364 233.018 70.3754C233.009 70.3866 232.999 70.3976 232.99 70.4085C232.98 70.4194 232.971 70.4301 232.961 70.4408C232.952 70.4513 232.943 70.4619 232.933 70.4723C232.924 70.4825 232.914 70.4925 232.905 70.5026C232.895 70.5125 232.886 70.5225 232.876 70.5324C232.867 70.542 232.857 70.5515 232.848 70.561C232.839 70.5705 232.829 70.5798 232.82 70.5891C232.81 70.5983 232.801 70.6074 232.791 70.6164C232.782 70.6253 232.772 70.6341 232.763 70.6429C232.753 70.6516 232.744 70.6604 232.734 70.6689C232.725 70.6774 232.716 70.6857 232.706 70.694C232.697 70.7023 232.687 70.7106 232.678 70.7188C232.668 70.7268 232.659 70.7346 232.649 70.7425C232.64 70.7503 232.631 70.7583 232.621 70.7661C232.612 70.7737 232.602 70.7811 232.593 70.7886C232.583 70.7961 232.574 70.8036 232.564 70.811C232.555 70.8183 232.545 70.8253 232.536 70.8325C232.526 70.8396 232.517 70.8467 232.507 70.8537C232.498 70.8606 232.489 70.8673 232.479 70.8741C232.47 70.8809 232.46 70.8877 232.451 70.8944C232.441 70.901 232.432 70.9074 232.422 70.9138C232.413 70.9203 232.404 70.9268 232.394 70.9331C232.385 70.9394 232.375 70.9454 232.366 70.9516C232.356 70.9577 232.347 70.964 232.337 70.97C232.328 70.9759 232.318 70.9816 232.309 70.9874C232.299 70.9933 232.29 70.9992 232.28 71.0049C232.271 71.0106 232.262 71.016 232.252 71.0216C232.243 71.0271 232.233 71.0327 232.224 71.0381C232.214 71.0435 232.205 71.0487 232.195 71.054C232.186 71.0593 232.176 71.0645 232.167 71.0697C232.158 71.0748 232.148 71.0798 232.139 71.0848L232.11 71.0996C232.101 71.1045 232.091 71.1093 232.082 71.1141C232.072 71.1188 232.063 71.1234 232.053 71.128C232.044 71.1326 232.035 71.1373 232.025 71.1418C232.016 71.1463 232.006 71.1506 231.997 71.1549C231.987 71.1593 231.978 71.1637 231.968 71.168C231.959 71.1722 231.949 71.1763 231.94 71.1804L231.912 71.1927L231.883 71.2045C231.874 71.2084 231.864 71.2122 231.855 71.216C231.845 71.2198 231.836 71.2236 231.826 71.2273C231.817 71.231 231.808 71.2344 231.798 71.2379C231.789 71.2415 231.779 71.2451 231.77 71.2486C231.76 71.252 231.751 71.2553 231.741 71.2586L231.713 71.2685L231.685 71.2781C231.675 71.2812 231.666 71.2842 231.656 71.2872C231.647 71.2902 231.637 71.2933 231.628 71.2962C231.618 71.2992 231.609 71.3018 231.599 71.3046L231.571 71.313L231.543 71.3209C231.533 71.3235 231.524 71.326 231.514 71.3285C231.505 71.331 231.495 71.3337 231.486 71.3361C231.477 71.3384 231.467 71.3406 231.458 71.3429C231.448 71.3452 231.439 71.3475 231.429 71.3497L231.401 71.3561L231.372 71.3623C231.363 71.3643 231.354 71.3664 231.344 71.3684C231.335 71.3703 231.325 71.3719 231.316 71.3737C231.306 71.3755 231.297 71.3774 231.287 71.3791L231.259 71.3841C231.25 71.3858 231.24 71.3872 231.231 71.3887C231.221 71.3903 231.212 71.392 231.202 71.3934C231.193 71.3948 231.183 71.396 231.174 71.3974L231.145 71.4013C231.136 71.4026 231.127 71.4039 231.117 71.405C231.108 71.4062 231.098 71.4072 231.089 71.4082C231.079 71.4093 231.07 71.4105 231.06 71.4114C231.051 71.4124 231.041 71.4132 231.032 71.4141L231.004 71.4166C230.994 71.4174 230.985 71.4184 230.975 71.4191C230.966 71.4198 230.956 71.4202 230.947 71.4208L230.918 71.4226L230.89 71.4241C230.881 71.4245 230.871 71.4248 230.862 71.4252C230.852 71.4255 230.843 71.4259 230.833 71.4262C230.824 71.4265 230.814 71.4266 230.805 71.4268L230.777 71.4271C230.768 71.4272 230.759 71.4274 230.75 71.4274H230.72H230.691H230.663H230.635H230.606H230.578H230.55H230.521H230.493H230.464H230.436H230.408H230.379H230.351H230.323H230.294H230.266H230.237H230.209H230.181H230.152H230.124H230.096H230.067H230.039H230.01H229.982H229.954H229.925H229.897H229.869H229.84H229.812H229.783H229.755H229.727H229.698H229.67H229.642H229.613H229.585H229.556H229.528H229.5H229.471H229.443H229.415H229.386H229.358H229.329H229.301H229.273H229.244H229.216H229.188H229.159H229.131H229.102H229.074H229.046H229.017H228.989H228.961H228.932H228.904H228.875H228.847H228.819H228.79H228.762H228.734H228.705H228.677H228.648H228.62H228.592H228.563H228.535H228.507H228.478H228.45H228.421H228.393H228.365H228.336H228.308H228.28H228.251H228.223H228.194H228.166H228.138H228.109H228.081H228.053H228.024H227.996H227.967H227.939H227.911H227.882H227.854H227.826H227.797H227.769H227.74H227.712H227.684H227.655H227.627H227.599H227.57H227.542H227.513H227.485H227.457H227.428H227.4H227.372H227.343H227.315H227.286H227.258H227.23H227.201H227.173H227.145H227.116H227.088H227.059H227.031H227.003H226.974H226.946H226.918H226.889H226.861H226.832H226.804H226.776H226.747H226.719H226.691H226.662H226.634H226.605H226.577H226.549H226.52H226.492H226.431V65.3062C226.431 65.3062 226.452 65.3119 226.492 65.3218L226.52 65.3288L226.549 65.3357L226.577 65.3424L226.605 65.349L226.634 65.3555L226.662 65.3619L226.691 65.3682L226.719 65.3745L226.747 65.3806L226.776 65.3867L226.804 65.3926L226.832 65.3985L226.861 65.4044L226.889 65.4101L226.918 65.4158L226.946 65.4214L226.974 65.4269L227.003 65.4323L227.031 65.4377L227.059 65.4431L227.088 65.4483L227.116 65.4535L227.145 65.4586L227.173 65.4636L227.201 65.4686L227.23 65.4735L227.258 65.4784L227.286 65.4831L227.315 65.4879L227.343 65.4925L227.372 65.4971L227.4 65.5016L227.428 65.5061L227.457 65.5105L227.485 65.5149L227.513 65.5192L227.542 65.5234L227.57 65.5275L227.599 65.5316L227.627 65.5356L227.655 65.5396L227.684 65.5435L227.712 65.5474L227.74 65.5512L227.769 65.5549L227.797 65.5586L227.826 65.5622L227.854 65.5657L227.882 65.5692L227.911 65.5727L227.939 65.5761L227.967 65.5793L227.996 65.5826L228.024 65.5858L228.053 65.5889L228.081 65.592L228.109 65.595L228.138 65.598L228.166 65.6008L228.194 65.6037L228.223 65.6064L228.251 65.6091L228.28 65.6118L228.308 65.6144L228.336 65.617L228.365 65.6194L228.393 65.6218L228.421 65.6241L228.45 65.6264L228.478 65.6287L228.507 65.6308L228.535 65.6329L228.563 65.6349L228.592 65.6369L228.62 65.6389L228.648 65.6407L228.677 65.6425L228.705 65.6442L228.734 65.6459L228.762 65.6475L228.79 65.649L228.819 65.6505L228.847 65.652L228.875 65.6533L228.904 65.6546L228.932 65.6558L228.961 65.657L228.989 65.6581L229.017 65.6591L229.046 65.6601L229.074 65.6611L229.102 65.6619L229.131 65.6627L229.159 65.6634L229.188 65.664L229.216 65.6647L229.244 65.6651L229.273 65.6656L229.301 65.666L229.329 65.6663L229.358 65.6666L229.386 65.6668L229.415 65.6669L229.443 65.667L229.471 65.6669L229.5 65.6667L229.528 65.6666L229.556 65.6664L229.585 65.6663L229.613 65.6657L229.642 65.6652L229.67 65.6647L229.698 65.6642L229.727 65.6635L229.755 65.6626L229.783 65.6618L229.812 65.6609L229.84 65.66L229.869 65.6588L229.897 65.6575L229.925 65.6563L229.954 65.655L229.982 65.6535L230.01 65.6519L230.039 65.6502L230.067 65.6486L230.096 65.6468L230.124 65.6447L230.152 65.6427L230.181 65.6407L230.209 65.6385L230.237 65.6361L230.266 65.6337L230.294 65.6312L230.323 65.6286L230.351 65.6257L230.379 65.6229L230.408 65.62L230.436 65.6169L230.464 65.6137L230.493 65.6104L230.521 65.6071L230.55 65.6034L230.578 65.5997L230.606 65.5959L230.635 65.5921C230.644 65.5908 230.654 65.5893 230.663 65.5879L230.691 65.5837L230.72 65.5795L230.748 65.5751C230.758 65.5735 230.767 65.5719 230.777 65.5703L230.805 65.5656C230.814 65.5641 230.824 65.5626 230.833 65.5609C230.843 65.5593 230.852 65.5575 230.862 65.5557L230.89 65.5505L230.918 65.5453L230.947 65.5398C230.956 65.5379 230.966 65.536 230.975 65.534L231.004 65.5283L231.032 65.5224C231.042 65.5204 231.051 65.5182 231.06 65.5161L231.089 65.5098C231.098 65.5077 231.108 65.5057 231.117 65.5035C231.127 65.5013 231.136 65.4989 231.145 65.4967L231.174 65.4898C231.183 65.4875 231.193 65.4853 231.202 65.4829C231.212 65.4805 231.221 65.478 231.231 65.4756L231.259 65.4681C231.268 65.4656 231.278 65.4631 231.287 65.4606C231.297 65.458 231.306 65.4553 231.316 65.4527L231.344 65.4445C231.354 65.4418 231.363 65.4392 231.372 65.4364L231.401 65.4278L231.429 65.4191C231.439 65.4161 231.448 65.4133 231.458 65.4103L231.486 65.401L231.514 65.3915C231.524 65.3883 231.533 65.3852 231.543 65.382C231.552 65.3787 231.562 65.3752 231.571 65.3718L231.599 65.3616C231.609 65.3582 231.618 65.3548 231.628 65.3513C231.637 65.3477 231.647 65.344 231.656 65.3403C231.666 65.3367 231.675 65.3331 231.685 65.3294L231.713 65.318L231.741 65.3062C231.751 65.3023 231.76 65.2985 231.77 65.2945C231.779 65.2904 231.789 65.2861 231.798 65.2819L231.826 65.2693L231.855 65.2563C231.864 65.2519 231.874 65.2473 231.883 65.2428C231.893 65.2383 231.902 65.2339 231.912 65.2293C231.921 65.2245 231.931 65.2197 231.94 65.2149C231.949 65.2101 231.959 65.2054 231.968 65.2005C231.978 65.1955 231.987 65.1904 231.997 65.1854C232.006 65.1803 232.016 65.1752 232.025 65.17C232.035 65.1648 232.044 65.1595 232.053 65.1541C232.063 65.1487 232.072 65.1432 232.082 65.1377C232.091 65.1322 232.101 65.1266 232.11 65.121C232.12 65.1152 232.129 65.1093 232.139 65.1035C232.148 65.0976 232.158 65.0917 232.167 65.0858C232.177 65.0796 232.186 65.0733 232.195 65.0671C232.205 65.0608 232.214 65.0546 232.224 65.0482C232.233 65.0417 232.243 65.035 232.252 65.0283C232.262 65.0216 232.271 65.0149 232.28 65.0081C232.29 65.0012 232.299 64.9941 232.309 64.987C232.318 64.9798 232.328 64.9726 232.337 64.9653C232.347 64.9578 232.356 64.9503 232.366 64.9427C232.375 64.935 232.385 64.9271 232.394 64.9193C232.404 64.9113 232.413 64.9034 232.422 64.8953C232.432 64.8869 232.441 64.8784 232.451 64.8699C232.46 64.8613 232.47 64.8527 232.479 64.844C232.489 64.835 232.498 64.8258 232.507 64.8167C232.517 64.8073 232.527 64.7978 232.536 64.7883C232.545 64.7786 232.555 64.7689 232.564 64.7591C232.574 64.7488 232.583 64.7384 232.593 64.7279C232.602 64.7172 232.612 64.7064 232.621 64.6956C232.631 64.6844 232.64 64.6732 232.649 64.6619C232.659 64.6501 232.668 64.6383 232.678 64.6264C232.687 64.6139 232.697 64.6013 232.706 64.5887C232.716 64.5755 232.725 64.5623 232.734 64.5489C232.744 64.535 232.754 64.521 232.763 64.5069C232.773 64.4921 232.782 64.4773 232.791 64.4622C232.801 64.4464 232.81 64.4305 232.82 64.4144C232.829 64.3974 232.839 64.3802 232.848 64.3629C232.858 64.3444 232.867 64.3258 232.876 64.3071C232.886 64.2869 232.896 64.2666 232.905 64.2461C232.915 64.2238 232.924 64.2014 232.933 64.1788C232.943 64.1539 232.953 64.1287 232.961 64.1034C232.972 64.0746 232.981 64.0456 232.99 64.0163C233 63.982 233.01 63.9474 233.018 63.9125C233.029 63.8691 233.038 63.8253 233.047 63.781C233.059 63.715 233.068 63.648 233.075 63.5801C233.084 63.4855 233.089 63.3891 233.089 63.2912V59.9211H233.047H233.018H232.99H232.961H232.933H232.905H232.876H232.848H232.82H232.791H232.763H232.734H232.706H232.678H232.649H232.621H232.593H232.564H232.536H232.507H232.479H232.451H232.422H232.394H232.366H232.337H232.309H232.28H232.252H232.224H232.195H232.167H232.139H232.11H232.082H232.053H232.025H231.997H231.968H231.94H231.912H231.883H231.855H231.826H231.798H231.77H231.741H231.713H231.685H231.656H231.628H231.599H231.571H231.543H231.514H231.486H231.458H231.429H231.401H231.372H231.344H231.316H231.287H231.259H231.231H231.202H231.174H231.145H231.117H231.089H231.06H231.032H231.004H230.975H230.947H230.918H230.89H230.862H230.833H230.805H230.777H230.748H230.72H230.691H230.663H230.635H230.606H230.578L230.556 63.2912C230.556 63.3439 230.554 63.3958 230.55 63.4467C230.544 63.5116 230.534 63.5748 230.521 63.6363C230.513 63.6743 230.504 63.7115 230.493 63.7481C230.484 63.7772 230.475 63.8059 230.464 63.8341C230.456 63.8581 230.446 63.8817 230.436 63.905C230.427 63.9258 230.418 63.9462 230.408 63.9664C230.399 63.9847 230.389 64.0029 230.379 64.0207C230.37 64.0371 230.361 64.0532 230.351 64.0691C230.342 64.0841 230.332 64.0989 230.323 64.1135C230.313 64.1272 230.304 64.1406 230.294 64.1539C230.285 64.1666 230.276 64.1792 230.266 64.1915C230.257 64.2032 230.247 64.2147 230.237 64.2261C230.228 64.237 230.219 64.2477 230.209 64.2583C230.2 64.2685 230.19 64.2787 230.181 64.2886C230.171 64.2982 230.162 64.3076 230.152 64.3169C230.143 64.3259 230.134 64.3349 230.124 64.3436C230.115 64.3521 230.105 64.3604 230.096 64.3686C230.086 64.3765 230.077 64.3844 230.067 64.3922C230.058 64.3997 230.048 64.4071 230.039 64.4144C230.03 64.4215 230.02 64.4286 230.01 64.4355C230.001 64.4422 229.992 64.4489 229.982 64.4554C229.973 64.4618 229.963 64.4681 229.954 64.4743C229.944 64.4803 229.935 64.4862 229.925 64.4921C229.916 64.4978 229.907 64.5034 229.897 64.509C229.888 64.5144 229.878 64.5197 229.869 64.5249C229.859 64.5301 229.85 64.5351 229.84 64.54C229.831 64.5449 229.821 64.5497 229.812 64.5544C229.802 64.559 229.793 64.5635 229.783 64.568C229.774 64.5723 229.765 64.5767 229.755 64.5809C229.746 64.585 229.736 64.5891 229.727 64.5931C229.717 64.597 229.708 64.6008 229.698 64.6045C229.689 64.6082 229.679 64.6118 229.67 64.6153C229.661 64.6188 229.651 64.6222 229.642 64.6256C229.632 64.6289 229.623 64.6321 229.613 64.6353C229.604 64.6384 229.594 64.6414 229.585 64.6443C229.575 64.6472 229.566 64.65 229.556 64.6528C229.547 64.6555 229.538 64.6582 229.528 64.6608C229.519 64.6634 229.509 64.666 229.5 64.6684C229.49 64.6708 229.481 64.6731 229.471 64.6753C229.462 64.6775 229.452 64.6797 229.443 64.6818C229.434 64.6838 229.424 64.6859 229.415 64.6878C229.405 64.6898 229.396 64.6917 229.386 64.6934C229.377 64.6952 229.367 64.6969 229.358 64.6985C229.348 64.7001 229.339 64.7018 229.329 64.7033L229.301 64.7075C229.292 64.7089 229.282 64.7101 229.273 64.7114C229.263 64.7126 229.254 64.7138 229.244 64.7149L229.216 64.718C229.207 64.719 229.197 64.7198 229.188 64.7206C229.178 64.7215 229.169 64.7223 229.159 64.7231C229.15 64.7238 229.14 64.7244 229.131 64.725C229.121 64.7256 229.112 64.7261 229.102 64.7266C229.093 64.7271 229.084 64.7276 229.074 64.728C229.065 64.7283 229.055 64.7285 229.046 64.7288L229.017 64.7295C229.008 64.7296 228.998 64.7297 228.989 64.7298L228.961 64.7298L228.932 64.7296L228.904 64.7292L228.875 64.7286L228.847 64.7279L228.819 64.727L228.79 64.7258L228.762 64.7245L228.734 64.7231L228.705 64.7214L228.677 64.7196L228.648 64.7177L228.62 64.7155L228.592 64.7131L228.563 64.7106L228.535 64.7079L228.507 64.7051L228.478 64.702L228.45 64.6989L228.421 64.6955L228.393 64.6919L228.365 64.6882L228.336 64.6843L228.308 64.6803L228.28 64.6761L228.251 64.6717L228.223 64.6672L228.194 64.6625L228.166 64.6576L228.138 64.6525L228.109 64.6474L228.081 64.642L228.053 64.6365L228.024 64.6308L227.996 64.625L227.967 64.619L227.939 64.6129L227.911 64.6065L227.882 64.6001L227.854 64.5935L227.826 64.5867L227.797 64.5798L227.769 64.5727L227.74 64.5654L227.712 64.558L227.684 64.5505L227.655 64.5428L227.627 64.535L227.599 64.527L227.57 64.5189L227.542 64.5106L227.513 64.5022L227.485 64.4936L227.457 64.4849L227.428 64.476L227.4 64.467L227.372 64.4579L227.343 64.4486L227.315 64.4391L227.286 64.4295L227.258 64.4198L227.23 64.4099L227.201 64.3999L227.173 64.3899L227.145 64.3795L227.116 64.3691L227.088 64.3586L227.059 64.3479L227.031 64.3371L227.003 64.3262L226.974 64.3151L226.946 64.3038L226.918 64.2925L226.889 64.281L226.861 64.2694L226.832 64.2577L226.804 64.2458L226.776 64.2338L226.747 64.2217L226.719 64.2094L226.691 64.1971L226.662 64.1846L226.634 64.172L226.605 64.1592L226.577 64.1463L226.549 64.1333L226.52 64.1202L226.492 64.107C226.472 64.0974 226.451 64.0878 226.431 64.0782Z" fill="#006CB9"/>
<path fill-rule="evenodd" clip-rule="evenodd" d="M234.64 60.6575C234.619 60.674 234.599 60.6906 234.579 60.7075V56.9048C234.579 56.7026 234.6 56.5052 234.64 56.3146C234.648 56.2737 234.658 56.2331 234.668 56.1928C234.677 56.1583 234.686 56.124 234.696 56.09C234.705 56.0597 234.715 56.0295 234.725 55.9996C234.734 55.9723 234.743 55.9451 234.753 55.9182C234.762 55.8932 234.772 55.8683 234.782 55.8437C234.791 55.8206 234.8 55.7977 234.81 55.7749C234.819 55.7535 234.829 55.7321 234.838 55.7109C234.848 55.6908 234.857 55.6708 234.867 55.6509C234.876 55.6319 234.885 55.613 234.895 55.5943C234.904 55.5762 234.914 55.5583 234.923 55.5405C234.933 55.5233 234.942 55.5063 234.952 55.4893C234.961 55.4729 234.971 55.4565 234.98 55.4403C234.99 55.4246 234.999 55.4089 235.009 55.3933C235.018 55.3783 235.027 55.3633 235.037 55.3485C235.046 55.334 235.056 55.3198 235.065 55.3055C235.075 55.2915 235.084 55.2776 235.094 55.2639C235.103 55.2503 235.112 55.2368 235.122 55.2235C235.131 55.2106 235.141 55.1979 235.15 55.1851C235.16 55.1726 235.169 55.1601 235.179 55.1477C235.188 55.1355 235.198 55.1233 235.207 55.1113C235.216 55.0996 235.226 55.088 235.236 55.0765C235.245 55.0651 235.254 55.0537 235.264 55.0425C235.273 55.0314 235.283 55.0203 235.292 55.0094C235.302 54.9987 235.311 54.9881 235.321 54.9776C235.33 54.9671 235.34 54.9566 235.349 54.9463C235.358 54.9362 235.368 54.9262 235.377 54.9162C235.387 54.9064 235.396 54.8966 235.406 54.8868C235.415 54.8772 235.425 54.8677 235.434 54.8582C235.444 54.8489 235.453 54.8397 235.463 54.8305C235.472 54.8214 235.481 54.8122 235.491 54.8032C235.5 54.7944 235.51 54.7858 235.519 54.7771C235.529 54.7684 235.538 54.7597 235.548 54.7512C235.557 54.7428 235.567 54.7346 235.576 54.7264C235.585 54.7181 235.595 54.7099 235.604 54.7018C235.614 54.6939 235.623 54.686 235.633 54.6782C235.642 54.6704 235.652 54.6626 235.661 54.6549C235.671 54.6474 235.68 54.6398 235.69 54.6324C235.699 54.625 235.708 54.6176 235.718 54.6103C235.727 54.6031 235.737 54.596 235.746 54.5889C235.756 54.5818 235.765 54.5748 235.775 54.5679C235.784 54.561 235.794 54.5542 235.803 54.5475C235.812 54.5408 235.822 54.5341 235.831 54.5275C235.841 54.5209 235.85 54.5145 235.86 54.5081C235.869 54.5017 235.879 54.4953 235.888 54.489C235.898 54.4828 235.907 54.4767 235.917 54.4706C235.926 54.4645 235.935 54.4584 235.945 54.4525C235.954 54.4466 235.964 54.4408 235.973 54.435C235.983 54.4292 235.992 54.4234 236.002 54.4177C236.011 54.4121 236.021 54.4066 236.03 54.4011C236.04 54.3956 236.049 54.39 236.058 54.3846C236.068 54.3793 236.077 54.3742 236.087 54.3689C236.096 54.3637 236.106 54.3584 236.115 54.3533C236.125 54.3483 236.134 54.3434 236.144 54.3384C236.153 54.3335 236.162 54.3285 236.172 54.3236L236.2 54.3094L236.229 54.2955C236.238 54.2909 236.248 54.2863 236.257 54.2819C236.267 54.2774 236.276 54.2731 236.285 54.2688C236.295 54.2644 236.304 54.26 236.314 54.2558C236.323 54.2516 236.333 54.2476 236.342 54.2435C236.352 54.2394 236.361 54.2353 236.371 54.2313C236.38 54.2273 236.389 54.2235 236.399 54.2196L236.427 54.2082C236.437 54.2045 236.446 54.2007 236.456 54.1971C236.465 54.1934 236.475 54.19 236.484 54.1864C236.494 54.1829 236.503 54.1792 236.512 54.1758C236.522 54.1724 236.531 54.1693 236.541 54.166C236.55 54.1627 236.56 54.1593 236.569 54.1561C236.579 54.1529 236.588 54.1498 236.598 54.1467L236.626 54.1376C236.635 54.1347 236.645 54.1316 236.654 54.1287C236.664 54.1259 236.673 54.1232 236.683 54.1204C236.692 54.1176 236.702 54.1148 236.711 54.1121C236.721 54.1094 236.73 54.1069 236.739 54.1043L236.768 54.0967C236.777 54.0943 236.787 54.0918 236.796 54.0894C236.806 54.087 236.815 54.0848 236.825 54.0826C236.834 54.0803 236.844 54.0779 236.853 54.0757C236.862 54.0736 236.872 54.0715 236.881 54.0695L236.91 54.0634C236.919 54.0614 236.929 54.0594 236.938 54.0575C236.948 54.0556 236.957 54.0539 236.967 54.0521C236.976 54.0503 236.985 54.0484 236.995 54.0468L237.023 54.0419L237.052 54.0373C237.061 54.0358 237.071 54.0342 237.08 54.0328C237.089 54.0313 237.099 54.0302 237.108 54.0288C237.118 54.0275 237.127 54.0262 237.137 54.0249L237.165 54.0214L237.194 54.0182C237.203 54.0172 237.212 54.016 237.222 54.015C237.231 54.0141 237.241 54.0134 237.25 54.0125L237.279 54.01C237.288 54.0092 237.298 54.0085 237.307 54.0078C237.316 54.0071 237.326 54.0066 237.335 54.006C237.345 54.0054 237.354 54.0048 237.364 54.0043C237.373 54.0037 237.383 54.0034 237.392 54.003L237.421 54.0019C237.43 54.0016 237.439 54.0011 237.449 54.0009C237.458 54.0006 237.468 54.0007 237.477 54.0005C237.487 54.0004 237.496 54.0002 237.506 54.0002L237.518 54H237.534H237.562H237.591H237.619H237.648H237.676H237.704H237.733H237.761H237.789H237.818H237.846H237.875H237.903H237.931H237.96H237.988H238.016H238.045H238.073H238.102H238.13H238.158H238.187H238.215H238.243H238.272H238.3H238.329H238.357H238.385H238.414H238.442H238.47H238.499H238.527H238.556H238.584H238.612H238.641H238.669H238.697H238.726H238.754H238.783H238.811H238.839H238.868H238.896H238.924H238.953H238.981H239.01H239.038H239.066H239.095H239.123H239.151H239.18H239.208H239.237H239.265H239.293H239.322H239.35H239.379H239.407H239.435H239.464H239.492H239.52H239.549H239.577H239.606H239.634H239.662H239.691H239.719H239.747H239.776H239.804H239.833H239.861H239.889H239.918H239.946H239.974H240.003H240.031H240.06H240.088H240.116H240.145H240.173H240.201H240.23H240.258H240.287H240.315H240.343H240.372H240.4H240.428H240.457H240.485H240.514H240.542H240.57H240.599H240.627H240.655H240.684H240.712H240.741H240.769H240.797H240.826H240.854H240.882H240.911H240.939H240.968H240.996H241.024H241.053H241.081H241.109H241.138H241.166H241.195H241.223H241.251H241.28H241.308H241.336H241.365H241.393H241.422H241.45H241.478H241.507H241.535H241.563H241.592H241.62H241.649H241.677H241.705H241.734H241.762H241.791H241.819H241.843V68.5229C241.843 68.6492 241.835 68.7735 241.819 68.8956C241.811 68.9543 241.802 69.0125 241.791 69.0701C241.782 69.1139 241.773 69.1574 241.762 69.2006C241.753 69.2369 241.744 69.273 241.734 69.3087C241.725 69.3401 241.715 69.3713 241.705 69.4022C241.696 69.4303 241.687 69.4581 241.677 69.4857C241.668 69.5113 241.658 69.5367 241.649 69.562C241.639 69.5856 241.63 69.609 241.62 69.6322C241.611 69.6542 241.602 69.676 241.592 69.6976C241.583 69.7182 241.573 69.7386 241.563 69.7588C241.554 69.7782 241.545 69.7975 241.535 69.8166C241.526 69.8349 241.516 69.8532 241.507 69.8713C241.497 69.8888 241.488 69.9061 241.478 69.9234C241.469 69.9401 241.46 69.9567 241.45 69.9732C241.441 69.989 241.431 70.0048 241.422 70.0205C241.412 70.0357 241.403 70.0508 241.393 70.0658C241.384 70.0804 241.374 70.095 241.365 70.1095C241.355 70.1236 241.346 70.1378 241.336 70.1517C241.327 70.1653 241.318 70.1787 241.308 70.1921C241.299 70.2052 241.289 70.2181 241.28 70.2311C241.27 70.2438 241.261 70.2565 241.251 70.269C241.242 70.2813 241.233 70.2934 241.223 70.3055C241.214 70.3174 241.204 70.3291 241.195 70.3408C241.185 70.3523 241.176 70.3639 241.166 70.3753C241.157 70.3864 241.147 70.3974 241.138 70.4084C241.128 70.4192 241.119 70.4299 241.109 70.4406C241.1 70.4512 241.091 70.4618 241.081 70.4722C241.072 70.4824 241.062 70.4924 241.053 70.5024C241.043 70.5124 241.034 70.5224 241.024 70.5323C241.015 70.5419 241.005 70.5514 240.996 70.5609C240.987 70.5703 240.977 70.5796 240.968 70.5889C240.958 70.5981 240.949 70.6072 240.939 70.6163C240.93 70.6252 240.92 70.634 240.911 70.6427C240.901 70.6515 240.892 70.6602 240.882 70.6688C240.873 70.6773 240.864 70.6855 240.854 70.6939C240.845 70.7022 240.835 70.7105 240.826 70.7187C240.816 70.7267 240.807 70.7345 240.797 70.7424C240.788 70.7503 240.778 70.7582 240.769 70.7659C240.76 70.7736 240.75 70.781 240.741 70.7885C240.731 70.796 240.722 70.8035 240.712 70.8109C240.703 70.8181 240.693 70.8252 240.684 70.8323C240.674 70.8394 240.665 70.8466 240.655 70.8536C240.646 70.8605 240.637 70.8672 240.627 70.874C240.618 70.8808 240.608 70.8876 240.599 70.8943C240.589 70.9008 240.58 70.9072 240.57 70.9137C240.561 70.9202 240.551 70.9267 240.542 70.933C240.533 70.9393 240.523 70.9453 240.514 70.9515C240.504 70.9576 240.495 70.9638 240.485 70.9699C240.476 70.9758 240.466 70.9815 240.457 70.9874C240.447 70.9932 240.438 70.9991 240.428 71.0048C240.419 71.0104 240.41 71.0159 240.4 71.0215C240.391 71.027 240.381 71.0326 240.372 71.038C240.362 71.0434 240.353 71.0486 240.343 71.0539L240.315 71.0696L240.287 71.0847L240.258 71.0995C240.249 71.1043 240.239 71.1092 240.23 71.114C240.22 71.1187 240.211 71.1233 240.201 71.1279C240.192 71.1325 240.183 71.1372 240.173 71.1418C240.164 71.1462 240.154 71.1505 240.145 71.1548C240.135 71.1592 240.126 71.1637 240.116 71.1679C240.107 71.1721 240.097 71.1762 240.088 71.1803L240.06 71.1926L240.031 71.2044L240.003 71.2159C239.993 71.2197 239.984 71.2235 239.974 71.2272C239.965 71.2309 239.955 71.2343 239.946 71.2379C239.937 71.2414 239.927 71.245 239.918 71.2485C239.908 71.2519 239.899 71.2552 239.889 71.2586L239.861 71.2684L239.833 71.278C239.823 71.2811 239.814 71.2841 239.804 71.2871C239.795 71.2901 239.785 71.2933 239.776 71.2962C239.766 71.2991 239.757 71.3018 239.747 71.3046L239.719 71.3129L239.691 71.3209C239.681 71.3235 239.672 71.3259 239.662 71.3284C239.653 71.3309 239.643 71.3336 239.634 71.336C239.624 71.3384 239.615 71.3405 239.606 71.3428C239.596 71.3451 239.587 71.3475 239.577 71.3497L239.549 71.3561L239.52 71.3622C239.511 71.3642 239.502 71.3664 239.492 71.3683C239.483 71.3702 239.473 71.3719 239.464 71.3737L239.435 71.379L239.407 71.3841C239.397 71.3857 239.388 71.3872 239.379 71.3887C239.369 71.3903 239.36 71.3919 239.35 71.3934C239.341 71.3948 239.331 71.396 239.322 71.3974L239.293 71.4013C239.284 71.4026 239.274 71.4038 239.265 71.405C239.256 71.4062 239.246 71.4071 239.237 71.4082C239.227 71.4093 239.218 71.4104 239.208 71.4114C239.199 71.4124 239.189 71.4132 239.18 71.4141L239.151 71.4166C239.142 71.4174 239.133 71.4184 239.123 71.4191C239.114 71.4197 239.104 71.4202 239.095 71.4208L239.066 71.4226L239.038 71.4241C239.029 71.4245 239.019 71.4248 239.01 71.4251C239 71.4255 238.991 71.4259 238.981 71.4262C238.972 71.4265 238.962 71.4266 238.953 71.4267L238.924 71.4271C238.916 71.4272 238.907 71.4274 238.898 71.4274H238.896H238.868H238.839H238.811H238.783H238.754H238.726H238.697H238.669H238.641H238.612H238.584H238.556H238.527H238.499H238.47H238.442H238.414H238.385H238.357H238.329H238.3H238.272H238.243H238.215H238.187H238.158H238.13H238.102H238.073H238.045H238.016H237.988H237.96H237.931H237.903H237.875H237.846H237.818H237.789H237.761H237.733H237.704H237.676H237.648H237.619H237.591H237.562H237.534H237.506H237.477H237.449H237.421H237.392H237.364H237.335H237.307H237.279H237.25H237.222H237.194H237.165H237.137H237.108H237.08H237.052H237.023H236.995H236.967H236.938H236.91H236.881H236.853H236.825H236.796H236.768H236.739H236.711H236.683H236.654H236.626H236.598H236.569H236.541H236.512H236.484H236.456H236.427H236.399H236.371H236.342H236.314H236.285H236.257H236.229H236.2H236.172H236.144H236.115H236.087H236.058H236.03H236.002H235.973H235.945H235.917H235.888H235.86H235.831H235.803H235.775H235.746H235.718H235.69H235.661H235.633H235.604H235.576H235.548H235.519H235.491H235.463H235.434H235.406H235.377H235.349H235.321H235.292H235.264H235.236H235.207H235.179H235.15H235.122H235.094H235.065H235.037H235.009H234.98H234.952H234.923H234.895H234.867H234.838H234.81H234.782H234.753H234.725H234.696H234.668H234.64H234.579V64.7211C234.599 64.738 234.619 64.7546 234.64 64.7711C234.649 64.7786 234.659 64.786 234.668 64.7934C234.677 64.8007 234.687 64.8079 234.696 64.8152C234.706 64.8223 234.715 64.8294 234.725 64.8365C234.734 64.8434 234.744 64.8502 234.753 64.857C234.763 64.8637 234.772 64.8705 234.782 64.8771C234.791 64.8837 234.8 64.8903 234.81 64.8968L234.838 64.916C234.848 64.9222 234.857 64.9284 234.867 64.9346L234.895 64.9529C234.904 64.9589 234.914 64.9648 234.923 64.9708C234.933 64.9766 234.942 64.9823 234.952 64.9881L234.98 65.0051C234.99 65.0107 234.999 65.0163 235.009 65.0218C235.018 65.0272 235.027 65.0326 235.037 65.0379L235.065 65.0539L235.094 65.0694L235.122 65.0845C235.131 65.0895 235.141 65.0945 235.15 65.0994C235.16 65.1043 235.169 65.109 235.179 65.1138L235.207 65.128L235.236 65.142L235.264 65.1555C235.273 65.1599 235.283 65.1645 235.292 65.1689L235.321 65.1818L235.349 65.1946L235.377 65.207L235.406 65.2192L235.434 65.2311L235.463 65.2428L235.491 65.2543L235.519 65.2654L235.548 65.2765L235.576 65.2871C235.586 65.2907 235.595 65.2943 235.604 65.2977L235.633 65.3079C235.642 65.3113 235.652 65.3148 235.661 65.3181C235.671 65.3214 235.68 65.3246 235.69 65.3279L235.718 65.3376L235.746 65.347C235.756 65.3501 235.765 65.3533 235.775 65.3564C235.784 65.3594 235.794 65.3623 235.803 65.3653L235.831 65.3743L235.86 65.3829L235.888 65.3915L235.917 65.3997L235.945 65.4079L235.973 65.4158L236.002 65.4237L236.03 65.4313L236.058 65.4388L236.087 65.4461L236.115 65.4532L236.144 65.4603L236.172 65.467L236.2 65.4738L236.229 65.4803L236.257 65.4867L236.285 65.4929L236.314 65.499L236.342 65.505L236.371 65.5108L236.399 65.5166L236.427 65.5221L236.456 65.5275L236.484 65.5328L236.512 65.538L236.541 65.5431L236.569 65.548L236.598 65.5528L236.626 65.5575L236.654 65.562L236.683 65.5665L236.711 65.5708L236.739 65.5751L236.768 65.5791L236.796 65.5831L236.825 65.5871L236.853 65.5908L236.881 65.5945L236.91 65.598L236.938 65.6015L236.967 65.6049L236.995 65.6081L237.023 65.6112L237.052 65.6144L237.08 65.6173L237.108 65.6201L237.137 65.6229L237.165 65.6255L237.194 65.6282L237.222 65.6306L237.25 65.633L237.279 65.6354L237.307 65.6375L237.335 65.6397L237.364 65.6418L237.392 65.6437L237.421 65.6456L237.449 65.6474L237.477 65.649L237.506 65.6507L237.534 65.6523L237.562 65.6536L237.591 65.655L237.619 65.6564L237.648 65.6575L237.676 65.6587L237.704 65.6598L237.733 65.6608L237.761 65.6617L237.789 65.6626L237.818 65.6633L237.846 65.664L237.875 65.6647L237.903 65.6652L237.931 65.6656L237.96 65.6661L237.988 65.6664L238.016 65.6667L238.045 65.6669L238.073 65.667L238.102 65.6671L238.13 65.6671L238.158 65.667L238.187 65.6669L238.215 65.6667L238.243 65.6665L238.272 65.6661L238.3 65.6657L238.329 65.6654L238.357 65.6648L238.385 65.6642L238.414 65.6637L238.442 65.6629L238.47 65.6622L238.499 65.6614L238.527 65.6605L238.556 65.6596L238.584 65.6586L238.612 65.6576L238.641 65.6565L238.669 65.6553L238.697 65.6542L238.711 65.6536L238.726 65.6529L238.754 65.6515L238.783 65.65L238.811 65.6485L238.839 65.6468L238.868 65.6451L238.896 65.6432L238.924 65.6413L238.953 65.6392L238.981 65.6371L239.01 65.6349L239.038 65.6326L239.066 65.6302L239.095 65.6278L239.123 65.6252L239.151 65.6226L239.18 65.6199L239.208 65.6171L239.237 65.6143L239.265 65.6113L239.293 65.6083L239.322 65.6052L239.35 65.6021L239.379 65.5989L239.407 65.5956L239.435 65.5922L239.464 65.5887L239.492 65.5852L239.52 65.5817L239.549 65.5781L239.577 65.5743L239.606 65.5706L239.634 65.5667L239.662 65.5628L239.691 65.5589L239.719 65.5548L239.747 65.5508L239.776 65.5466L239.804 65.5424L239.833 65.5381L239.861 65.5338L239.889 65.5294L239.918 65.5249L239.946 65.5204L239.974 65.5159L240.003 65.5112L240.031 65.5066L240.06 65.5018L240.088 65.497L240.116 65.4922L240.145 65.4873L240.173 65.4823L240.201 65.4773L240.23 65.4722L240.258 65.4671L240.287 65.4619L240.315 65.4567L240.343 65.4514L240.372 65.446L240.4 65.4406L240.428 65.4352L240.457 65.4297L240.485 65.4241L240.514 65.4185L240.542 65.4128L240.57 65.4071L240.599 65.4013L240.627 65.3954L240.655 65.3896L240.684 65.3836L240.712 65.3776L240.741 65.3715L240.769 65.3654L240.797 65.3592L240.826 65.3529L240.854 65.3466L240.882 65.3401L240.911 65.3337L240.939 65.3271L240.968 65.3204L240.996 65.3137L241.024 65.3068V64.0782L240.996 64.092L240.968 64.1058L240.939 64.1195L240.911 64.1331L240.882 64.1466L240.854 64.1599L240.826 64.173L240.797 64.1861L240.769 64.199L240.741 64.2118L240.712 64.2244L240.684 64.2369L240.655 64.2492L240.627 64.2614L240.599 64.2734L240.57 64.2853L240.542 64.2971L240.514 64.3087L240.485 64.3201L240.457 64.3314L240.428 64.3426L240.4 64.3536L240.372 64.3644L240.343 64.3751L240.315 64.3856L240.287 64.396L240.258 64.4062L240.23 64.4162L240.201 64.4261L240.173 64.4358L240.145 64.4454L240.116 64.4548L240.088 64.4641L240.06 64.4732L240.031 64.4821L240.003 64.4909L239.974 64.4995L239.946 64.5079L239.918 64.5163L239.889 64.5244L239.861 64.5324L239.833 64.5402L239.804 64.5478L239.776 64.5554L239.747 64.5627L239.719 64.5699L239.691 64.5769L239.662 64.5837L239.634 64.5905L239.606 64.597L239.577 64.6034L239.549 64.6097L239.52 64.6157L239.492 64.6217L239.464 64.6274L239.435 64.633L239.407 64.6385L239.379 64.6438L239.35 64.6489L239.322 64.6539L239.293 64.6588L239.265 64.6634L239.237 64.668L239.208 64.6724L239.18 64.6766L239.151 64.6806L239.123 64.6846L239.095 64.6884L239.066 64.692L239.038 64.6954L239.01 64.6988L238.981 64.7019L238.953 64.705L238.924 64.7079L238.896 64.7106L238.868 64.7132L238.839 64.7156L238.811 64.7179L238.794 64.7193L238.783 64.72L238.754 64.7219L238.726 64.7237L238.697 64.7253L238.669 64.7267L238.641 64.728L238.612 64.7289L238.584 64.7298L238.556 64.7304L238.527 64.7308L238.499 64.7312C238.489 64.7312 238.48 64.7311 238.47 64.7311L238.442 64.731L238.414 64.7305L238.385 64.7299L238.357 64.7292C238.347 64.7289 238.338 64.7285 238.329 64.7281C238.319 64.7277 238.31 64.7274 238.3 64.7269L238.272 64.7254L238.243 64.7237L238.215 64.7218L238.187 64.7196C238.177 64.7188 238.168 64.7181 238.158 64.7173C238.149 64.7164 238.139 64.7154 238.13 64.7145L238.102 64.7117L238.073 64.7084L238.045 64.705L238.016 64.7013L237.988 64.6973C237.979 64.696 237.969 64.6946 237.96 64.6932C237.95 64.6917 237.941 64.6901 237.931 64.6886C237.922 64.687 237.912 64.6856 237.903 64.6839C237.893 64.6822 237.884 64.6804 237.875 64.6787C237.865 64.6769 237.856 64.6753 237.846 64.6734C237.837 64.6716 237.827 64.6695 237.818 64.6676C237.808 64.6656 237.799 64.6637 237.789 64.6617C237.78 64.6596 237.77 64.6574 237.761 64.6553L237.733 64.6487C237.723 64.6464 237.714 64.644 237.704 64.6416C237.695 64.6392 237.685 64.6369 237.676 64.6344C237.666 64.6319 237.657 64.6292 237.648 64.6266C237.638 64.624 237.629 64.6214 237.619 64.6186C237.61 64.6159 237.6 64.613 237.591 64.6102C237.581 64.6073 237.572 64.6044 237.562 64.6014C237.553 64.5984 237.543 64.5953 237.534 64.5922C237.525 64.589 237.515 64.5859 237.506 64.5827C237.496 64.5794 237.487 64.576 237.477 64.5726C237.468 64.5692 237.458 64.5658 237.449 64.5623C237.439 64.5587 237.43 64.555 237.421 64.5513C237.411 64.5476 237.402 64.544 237.392 64.5402C237.383 64.5363 237.373 64.5322 237.364 64.5282C237.354 64.5242 237.345 64.5202 237.335 64.5161C237.326 64.5119 237.316 64.5075 237.307 64.5032C237.298 64.4988 237.288 64.4945 237.279 64.49C237.269 64.4855 237.26 64.4808 237.25 64.4762C237.241 64.4714 237.231 64.4666 237.222 64.4618C237.212 64.4569 237.203 64.452 237.194 64.447C237.184 64.4418 237.175 64.4365 237.165 64.4312C237.156 64.4259 237.146 64.4206 237.137 64.4152C237.127 64.4096 237.118 64.4039 237.108 64.3983C237.099 64.3925 237.089 64.3866 237.08 64.3807C237.071 64.3747 237.061 64.3688 237.052 64.3627C237.042 64.3564 237.033 64.3499 237.023 64.3435C237.014 64.337 237.004 64.3304 236.995 64.3237C236.985 64.317 236.976 64.3102 236.967 64.3033C236.957 64.2962 236.948 64.2889 236.938 64.2816C236.929 64.2742 236.919 64.2668 236.91 64.2592C236.9 64.2515 236.891 64.2439 236.881 64.236C236.872 64.2279 236.862 64.2197 236.853 64.2114C236.843 64.203 236.834 64.1944 236.825 64.1858C236.815 64.177 236.806 64.1681 236.796 64.1591C236.787 64.1499 236.777 64.1407 236.768 64.1313C236.758 64.1216 236.749 64.1117 236.739 64.1017C236.73 64.0915 236.72 64.0812 236.711 64.0707C236.702 64.06 236.692 64.0492 236.683 64.0382C236.673 64.0269 236.664 64.0155 236.654 64.0039C236.645 63.992 236.635 63.9799 236.626 63.9677C236.616 63.9551 236.607 63.9423 236.598 63.9294C236.588 63.9159 236.578 63.9023 236.569 63.8885C236.56 63.8741 236.55 63.8596 236.541 63.8449C236.531 63.8295 236.522 63.8138 236.512 63.798C236.503 63.7814 236.493 63.7646 236.484 63.7475C236.474 63.7295 236.465 63.7112 236.456 63.6927C236.446 63.673 236.436 63.653 236.427 63.6328C236.418 63.6111 236.408 63.5891 236.399 63.5668C236.389 63.5422 236.38 63.517 236.371 63.4917C236.361 63.4635 236.351 63.435 236.342 63.406C236.332 63.3724 236.322 63.3382 236.314 63.3035C236.303 63.2602 236.294 63.2161 236.285 63.1711C236.273 63.1044 236.264 63.0358 236.257 62.9654C236.249 62.8841 236.246 62.8004 236.246 62.7142C236.246 62.628 236.249 62.5441 236.257 62.4628C236.264 62.3923 236.273 62.3238 236.285 62.257C236.294 62.2121 236.303 62.1678 236.314 62.1246C236.322 62.0898 236.332 62.0556 236.342 62.022C236.351 61.993 236.361 61.9644 236.371 61.9363C236.38 61.9109 236.389 61.8858 236.399 61.8611C236.408 61.8387 236.418 61.8168 236.427 61.7951C236.436 61.7748 236.446 61.7549 236.456 61.7352C236.465 61.7167 236.474 61.6983 236.484 61.6803C236.493 61.6632 236.503 61.6464 236.512 61.6297C236.522 61.6139 236.531 61.5983 236.541 61.5829C236.55 61.5681 236.56 61.5536 236.569 61.5392C236.578 61.5254 236.588 61.5118 236.598 61.4984C236.607 61.4854 236.616 61.4727 236.626 61.46C236.635 61.4478 236.645 61.4357 236.654 61.4238C236.664 61.4122 236.673 61.4008 236.683 61.3895C236.692 61.3785 236.702 61.3677 236.711 61.3569C236.72 61.3465 236.73 61.3361 236.739 61.3259C236.749 61.316 236.758 61.306 236.768 61.2963C236.777 61.2869 236.787 61.2777 236.796 61.2685C236.806 61.2595 236.815 61.2506 236.825 61.2418C236.834 61.2332 236.843 61.2246 236.853 61.2162C236.862 61.2079 236.872 61.1996 236.881 61.1916C236.891 61.1837 236.9 61.176 236.91 61.1683C236.919 61.1608 236.929 61.1533 236.938 61.1459C236.948 61.1387 236.957 61.1314 236.967 61.1243C236.976 61.1173 236.985 61.1106 236.995 61.1038C237.004 61.0971 237.014 61.0906 237.023 61.084C237.033 61.0776 237.042 61.0711 237.052 61.0649C237.061 61.0587 237.071 61.0528 237.08 61.0468C237.089 61.0409 237.099 61.035 237.108 61.0292C237.118 61.0235 237.127 61.0179 237.137 61.0123C237.146 61.0069 237.156 61.0016 237.165 60.9963C237.175 60.991 237.184 60.9857 237.194 60.9806C237.203 60.9755 237.212 60.9706 237.222 60.9657C237.231 60.9609 237.241 60.9561 237.25 60.9513C237.26 60.9467 237.269 60.942 237.279 60.9375C237.288 60.933 237.298 60.9286 237.307 60.9243C237.316 60.9199 237.326 60.9156 237.335 60.9114C237.345 60.9072 237.354 60.9032 237.364 60.8992C237.373 60.8952 237.383 60.8912 237.392 60.8873C237.402 60.8835 237.411 60.8798 237.421 60.8761C237.43 60.8724 237.439 60.8687 237.449 60.8651C237.458 60.8616 237.468 60.8583 237.477 60.8548C237.487 60.8515 237.496 60.848 237.506 60.8447C237.515 60.8415 237.525 60.8384 237.534 60.8352C237.543 60.8321 237.553 60.829 237.562 60.826C237.572 60.823 237.581 60.8201 237.591 60.8173C237.6 60.8144 237.61 60.8116 237.619 60.8088L237.648 60.8008C237.657 60.7982 237.666 60.7955 237.676 60.793C237.685 60.7906 237.695 60.7882 237.704 60.7858C237.714 60.7834 237.723 60.781 237.733 60.7787L237.761 60.7722C237.77 60.77 237.78 60.7678 237.789 60.7657C237.799 60.7637 237.808 60.7618 237.818 60.7598C237.827 60.7579 237.837 60.7558 237.846 60.754C237.856 60.7521 237.865 60.7505 237.875 60.7487C237.884 60.747 237.893 60.7452 237.903 60.7435C237.912 60.7418 237.922 60.7404 237.931 60.7388C237.941 60.7373 237.95 60.7357 237.96 60.7342L237.988 60.73L238.016 60.7261L238.045 60.7224L238.073 60.719L238.102 60.7157L238.13 60.7129C238.139 60.712 238.149 60.7109 238.158 60.7101C238.168 60.7092 238.177 60.7086 238.187 60.7078L238.215 60.7056L238.243 60.7037L238.272 60.702L238.3 60.7004C238.31 60.7 238.319 60.6997 238.329 60.6993C238.338 60.6989 238.347 60.6984 238.357 60.6981L238.385 60.6974L238.414 60.6968L238.442 60.6964L238.47 60.6963C238.48 60.6963 238.489 60.6962 238.499 60.6962L238.527 60.6966L238.556 60.697L238.584 60.6976L238.612 60.6985L238.641 60.6994L238.669 60.7007L238.697 60.7021L238.726 60.7036L238.754 60.7055L238.783 60.7074L238.794 60.7081L238.811 60.7095L238.839 60.7117L238.868 60.7141L238.896 60.7167L238.924 60.7193L238.953 60.7222L238.981 60.7252L239.01 60.7283L239.038 60.7316L239.066 60.735L239.095 60.7386L239.123 60.7423L239.151 60.7462L239.18 60.7502L239.208 60.7544L239.237 60.7587L239.265 60.7632L239.293 60.7678L239.322 60.7726L239.35 60.7775L239.379 60.7826L239.407 60.7879L239.435 60.7933L239.464 60.7988L239.492 60.8045L239.52 60.8104L239.549 60.8165L239.577 60.8227L239.606 60.829L239.634 60.8355L239.662 60.8422L239.691 60.849L239.719 60.856L239.747 60.8631L239.776 60.8705L239.804 60.8779L239.833 60.8856L239.861 60.8934L239.889 60.9013L239.918 60.9095L239.946 60.9177L239.974 60.9262L240.003 60.9348L240.031 60.9436L240.06 60.9525L240.088 60.9616L240.116 60.9709L240.145 60.9803L240.173 60.9899L240.201 60.9996L240.23 61.0096L240.258 61.0197L240.287 61.0299L240.315 61.0403L240.343 61.0509L240.372 61.0616L240.4 61.0725L240.428 61.0835L240.457 61.0947L240.485 61.1061L240.514 61.1176L240.542 61.1293L240.57 61.1411L240.599 61.1531L240.627 61.1652L240.655 61.1775L240.684 61.1899L240.712 61.2025L240.741 61.2153L240.769 61.2281L240.797 61.2411L240.826 61.2543L240.854 61.2676L240.882 61.281L240.911 61.2946L240.939 61.3083L240.968 61.3221L240.996 61.3361L241.024 61.3501V60.1205L240.996 60.1137L240.968 60.1069L240.939 60.1003L240.911 60.0937L240.882 60.0872L240.854 60.0808L240.826 60.0745L240.797 60.0682L240.769 60.062L240.741 60.0559L240.712 60.0498L240.684 60.0438L240.655 60.0378L240.627 60.0319L240.599 60.0261L240.57 60.0203L240.542 60.0146L240.514 60.0089L240.485 60.0033L240.457 59.9977L240.428 59.9923L240.4 59.9868L240.372 59.9814L240.343 59.976L240.315 59.9708L240.287 59.9655L240.258 59.9604L240.23 59.9552L240.201 59.9502L240.173 59.9452L240.145 59.9402L240.116 59.9353L240.088 59.9305L240.06 59.9257L240.031 59.9209L240.003 59.9163L239.974 59.9117L239.946 59.9071L239.918 59.9026L239.889 59.8982L239.861 59.8938L239.833 59.8894L239.804 59.8852L239.776 59.881L239.747 59.8768L239.719 59.8728L239.691 59.8687L239.662 59.8648L239.634 59.8609L239.606 59.8571L239.577 59.8533L239.549 59.8496L239.52 59.846L239.492 59.8424L239.464 59.8389L239.435 59.8355L239.407 59.8321L239.379 59.8288L239.35 59.8256L239.322 59.8225L239.293 59.8194L239.265 59.8164L239.237 59.8135L239.208 59.8106L239.18 59.8079L239.151 59.8052L239.123 59.8025L239.095 59.8L239.066 59.7976L239.038 59.7952L239.01 59.7929L238.981 59.7907L238.953 59.7886L238.924 59.7866L238.896 59.7847L238.868 59.7828L238.839 59.7811L238.811 59.7794L238.783 59.7779L238.754 59.7764L238.726 59.7751L238.711 59.7744L238.697 59.7738L238.669 59.7727L238.641 59.7715L238.612 59.7704L238.584 59.7694L238.556 59.7684L238.527 59.7675L238.499 59.7666L238.47 59.7658L238.442 59.7651L238.414 59.7643L238.385 59.7638L238.357 59.7632L238.329 59.7626L238.3 59.7622L238.272 59.7619L238.243 59.7615L238.215 59.7613L238.187 59.7611L238.158 59.761L238.13 59.7609L238.102 59.7609L238.073 59.761L238.045 59.7611L238.016 59.7613L237.988 59.7616L237.96 59.7619L237.931 59.7624L237.903 59.7629L237.875 59.7633L237.846 59.764L237.818 59.7647L237.789 59.7654L237.761 59.7663L237.733 59.7673L237.704 59.7682L237.676 59.7693L237.648 59.7705L237.619 59.7716L237.591 59.773L237.562 59.7744L237.534 59.7758L237.506 59.7774L237.477 59.779L237.449 59.7806L237.421 59.7825L237.392 59.7844L237.364 59.7863L237.335 59.7884L237.307 59.7905L237.279 59.7927L237.25 59.7951L237.222 59.7974L237.194 59.7999L237.165 59.8025L237.137 59.8051L237.108 59.8079L237.08 59.8108L237.052 59.8137L237.023 59.8169L236.995 59.82L236.967 59.8232L236.938 59.8266L236.91 59.8301L236.881 59.8337L236.853 59.8373L236.825 59.841L236.796 59.845L236.768 59.849L236.739 59.8531L236.711 59.8573L236.683 59.8616L236.654 59.8661L236.626 59.8707L236.598 59.8753L236.569 59.8802L236.541 59.885L236.512 59.8901L236.484 59.8953L236.456 59.9006L236.427 59.9061L236.399 59.9116L236.371 59.9173L236.342 59.9231L236.314 59.9291L236.285 59.9352L236.257 59.9415L236.229 59.9479L236.2 59.9544L236.172 59.9611L236.144 59.9679L236.115 59.975L236.087 59.9821L236.058 59.9894L236.03 59.9969L236.002 60.0046L235.973 60.0124L235.945 60.0203L235.917 60.0285L235.888 60.0368L235.86 60.0454L235.831 60.054L235.803 60.0629C235.794 60.0659 235.784 60.0689 235.775 60.0719L235.746 60.0813C235.737 60.0844 235.727 60.0875 235.718 60.0906L235.69 60.1004L235.661 60.1102C235.652 60.1135 235.642 60.117 235.633 60.1204C235.623 60.1238 235.614 60.1271 235.604 60.1306L235.576 60.1412C235.567 60.1447 235.557 60.1482 235.548 60.1518L235.519 60.1629L235.491 60.174L235.463 60.1855L235.434 60.1972L235.406 60.2091L235.377 60.2214L235.349 60.2338L235.321 60.2466L235.292 60.2595C235.283 60.2639 235.273 60.2684 235.264 60.2729L235.236 60.2864L235.207 60.3003L235.179 60.3146C235.169 60.3194 235.16 60.3241 235.15 60.329C235.141 60.3339 235.131 60.3389 235.122 60.3439L235.094 60.3591L235.065 60.3746C235.056 60.3799 235.046 60.3852 235.037 60.3905C235.027 60.3959 235.018 60.4012 235.009 60.4067C234.999 60.4122 234.99 60.4178 234.98 60.4233C234.971 60.429 234.961 60.4347 234.952 60.4404C234.942 60.4462 234.933 60.4519 234.923 60.4577C234.914 60.4636 234.904 60.4696 234.895 60.4756L234.867 60.4939C234.857 60.5001 234.848 60.5063 234.838 60.5125L234.81 60.5317C234.8 60.5383 234.791 60.5448 234.782 60.5514C234.772 60.5581 234.763 60.5648 234.753 60.5716C234.744 60.5784 234.734 60.5852 234.725 60.5921C234.715 60.5992 234.706 60.6063 234.696 60.6134C234.687 60.6206 234.677 60.6279 234.668 60.6352C234.659 60.6426 234.649 60.65 234.64 60.6575V60.6575V60.6575Z" fill="#E10238"/>
</g>
<line y1="85.5" x2="370" y2="85.5" stroke="#8D8989"/>
<defs>
<filter id="filter0_d_388_5788" x="114" y="51" width="37" height="26" filterUnits="userSpaceOnUse" color-interpolation-filters="sRGB">
<feFlood flood-opacity="0" result="BackgroundImageFix"/>
<feColorMatrix in="SourceAlpha" type="matrix" values="0 0 0 0 0 0 0 0 0 0 0 0 0 0 0 0 0 0 127 0" result="hardAlpha"/>
<feOffset dy="1"/>
<feGaussianBlur stdDeviation="0.5"/>
<feComposite in2="hardAlpha" operator="out"/>
<feColorMatrix type="matrix" values="0 0 0 0 0 0 0 0 0 0 0 0 0 0 0 0 0 0 0.25 0"/>
<feBlend mode="normal" in2="BackgroundImageFix" result="effect1_dropShadow_388_5788"/>
<feBlend mode="normal" in="SourceGraphic" in2="effect1_dropShadow_388_5788" result="shape"/>
</filter>
<filter id="filter1_d_388_5788" x="167" y="51" width="37" height="26" filterUnits="userSpaceOnUse" color-interpolation-filters="sRGB">
<feFlood flood-opacity="0" result="BackgroundImageFix"/>
<feColorMatrix in="SourceAlpha" type="matrix" values="0 0 0 0 0 0 0 0 0 0 0 0 0 0 0 0 0 0 127 0" result="hardAlpha"/>
<feOffset dy="1"/>
<feGaussianBlur stdDeviation="0.5"/>
<feComposite in2="hardAlpha" operator="out"/>
<feColorMatrix type="matrix" values="0 0 0 0 0 0 0 0 0 0 0 0 0 0 0 0 0 0 0.25 0"/>
<feBlend mode="normal" in2="BackgroundImageFix" result="effect1_dropShadow_388_5788"/>
<feBlend mode="normal" in="SourceGraphic" in2="effect1_dropShadow_388_5788" result="shape"/>
</filter>
<filter id="filter2_d_388_5788" x="220" y="51" width="37" height="26" filterUnits="userSpaceOnUse" color-interpolation-filters="sRGB">
<feFlood flood-opacity="0" result="BackgroundImageFix"/>
<feColorMatrix in="SourceAlpha" type="matrix" values="0 0 0 0 0 0 0 0 0 0 0 0 0 0 0 0 0 0 127 0" result="hardAlpha"/>
<feOffset dy="1"/>
<feGaussianBlur stdDeviation="0.5"/>
<feComposite in2="hardAlpha" operator="out"/>
<feColorMatrix type="matrix" values="0 0 0 0 0 0 0 0 0 0 0 0 0 0 0 0 0 0 0.25 0"/>
<feBlend mode="normal" in2="BackgroundImageFix" result="effect1_dropShadow_388_5788"/>
<feBlend mode="normal" in="SourceGraphic" in2="effect1_dropShadow_388_5788" result="shape"/>
</filter>
</defs>
</svg>
