<svg width="370" height="56" viewBox="0 0 370 56" fill="none" xmlns="http://www.w3.org/2000/svg">
<path d="M0 20C0 8.95431 8.9543 0 20 0H350C361.046 0 370 8.95431 370 20V56H0V20Z" fill="white"/>
<path d="M129.78 26.1H125.9V27.5H128.36V33.18H129.78V26.1ZM129.78 32.58H128.5C127.58 33.46 126.52 34.36 125.66 35.02L126.44 36.44C127.4 35.54 128.3 34.68 129.16 33.82C130.42 35.4 132.24 36.12 134.9 36.22C137.18 36.3 141.54 36.26 143.82 36.16C143.88 35.74 144.12 35.06 144.3 34.74C141.84 34.9 137.14 34.96 134.88 34.86C132.5 34.76 130.72 34.08 129.78 32.58ZM126 19.44C127.16 20.44 128.46 21.88 128.98 22.88L130.24 22.02C129.68 21.02 128.34 19.64 127.16 18.68L126 19.44ZM131.26 26.66V27.82H143.4V26.66H131.26ZM130.62 29.74V30.92H144.02V29.74H130.62ZM134.22 25.22V30.32H135.66V25.22H134.22ZM138.94 25.22V30.32H140.36V25.22H138.94ZM131.76 21.34V22.4H136.6V19H131V20.04H135.28V21.34H131.76ZM131.34 21.34V23.44C131.34 24.64 131.74 24.94 133.22 24.94C133.52 24.94 135.42 24.94 135.74 24.94C136.76 24.94 137.14 24.6 137.28 23.3C136.92 23.24 136.42 23.08 136.18 22.88C136.12 23.76 136.02 23.88 135.54 23.88C135.16 23.88 133.64 23.88 133.36 23.88C132.72 23.88 132.62 23.8 132.62 23.42V21.34H131.34ZM138.36 21.34V22.4H143.12V19H137.56V20.04H141.82V21.34H138.36ZM137.92 21.34V23.42C137.92 24.64 138.34 24.94 139.86 24.94C140.18 24.94 142.22 24.94 142.54 24.94C143.62 24.94 144 24.6 144.14 23.24C143.78 23.16 143.28 23 143.02 22.82C142.96 23.76 142.86 23.88 142.36 23.88C141.96 23.88 140.32 23.88 140 23.88C139.32 23.88 139.2 23.8 139.2 23.42V21.34H137.92ZM138.58 31.82C139.96 32.54 141.44 33.5 142.24 34.24L143.72 33.58C142.76 32.84 141.12 31.86 139.66 31.16L138.58 31.82ZM134.92 31.12C134.02 31.94 132.52 32.7 131.16 33.24C131.48 33.44 132.04 33.92 132.26 34.18C133.6 33.54 135.22 32.56 136.24 31.58L134.92 31.12ZM160.32 20.1H162.36V22.22H160.32V20.1ZM157.12 20.1H159.12V22.22H157.12V20.1ZM154.02 20.1H155.92V22.22H154.02V20.1ZM152.78 19.02V23.3H163.62V19.02H152.78ZM153 24.54V25.68H163.22V24.54H153ZM152 27.1V28.3H164.22V27.1H152ZM152.2 30.2V31.38H163.94V30.2H152.2ZM152.6 32.82V33.98H163.5V32.82H152.6ZM157.32 23.02V27.58H158.76V23.02H157.32ZM157.32 30.72V36.76H158.76V30.72H157.32ZM154.5 28.48C154.82 29.08 155.12 29.9 155.24 30.4L156.54 30.06C156.42 29.54 156.06 28.76 155.74 28.2L154.5 28.48ZM160.48 28C160.28 28.58 159.88 29.48 159.56 30.08L160.7 30.4C161.04 29.88 161.48 29.12 161.88 28.38L160.48 28ZM145.54 28.58L145.94 30.04C147.64 29.5 149.84 28.78 151.92 28.06L151.72 26.68C149.44 27.42 147.1 28.14 145.54 28.58ZM145.82 22.24V23.64H151.9V22.24H145.82ZM148.34 18.22V34.86C148.34 35.16 148.22 35.22 147.98 35.22C147.74 35.24 146.98 35.24 146.1 35.22C146.3 35.64 146.48 36.26 146.54 36.62C147.8 36.62 148.58 36.58 149.04 36.34C149.54 36.1 149.74 35.7 149.74 34.86V18.22H148.34ZM171.88 22.66V24.18H184.08V22.66H171.88ZM180.02 18.44V34.56C180.02 35.02 179.84 35.14 179.36 35.18C178.9 35.2 177.24 35.2 175.54 35.14C175.78 35.56 176.06 36.24 176.14 36.64C178.32 36.66 179.68 36.64 180.46 36.38C181.22 36.16 181.54 35.7 181.54 34.56V18.44H180.02ZM173.14 26.9C174.16 28.5 175.46 30.66 176.06 31.9L177.46 31.14C176.82 29.92 175.48 27.84 174.44 26.28L173.14 26.9ZM168.7 23.66V36.56H170.22V22.18L170.2 22.14L168.7 23.66ZM170.88 18.34C169.72 21.46 167.8 24.52 165.74 26.48C166.02 26.84 166.5 27.6 166.68 27.96C168.9 25.7 171 22.26 172.34 18.78L170.88 18.34ZM186.02 20.12V21.38H195.26V20.12H186.02ZM185.78 28.68V29.94H195.44V28.68H185.78ZM186.48 23.1V24.38H194.84V23.1H186.48ZM186.7 25.88V27.14H194.6V25.88H186.7ZM189.94 29.22V35.06C189.94 35.26 189.88 35.32 189.66 35.32C189.44 35.34 188.74 35.34 187.94 35.32C188.12 35.7 188.32 36.24 188.38 36.62C189.52 36.62 190.24 36.6 190.72 36.38C191.22 36.18 191.34 35.78 191.34 35.08V29.22H189.94ZM189.92 18.28V23.92H191.34V18.28H189.92ZM187.32 30.64C186.96 32.14 186.32 33.64 185.48 34.68C185.8 34.8 186.38 35.12 186.64 35.3C187.46 34.2 188.18 32.56 188.6 30.88L187.32 30.64ZM192.5 31.08C193.08 32.06 193.68 33.4 193.94 34.2L195.12 33.62C194.88 32.84 194.24 31.58 193.64 30.62L192.5 31.08ZM196.9 21.84V23.22H202.96V21.84H196.9ZM199.34 22.4H198.6V25.96C198.6 27.6 198 32.74 193.8 35.42C194.08 35.7 194.5 36.3 194.66 36.62C197.94 34.48 199.12 30.76 199.32 29.04C199.52 30.68 200.56 34.58 203.4 36.62C203.6 36.26 204.06 35.68 204.32 35.34C200.64 32.74 200.04 27.56 200.04 25.96V22.4H199.34ZM196.96 18.18C196.58 21.38 195.84 24.46 194.56 26.44C194.92 26.66 195.58 27.1 195.84 27.34C197.14 25.18 198 21.88 198.46 18.42L196.96 18.18ZM202.54 21.84V22.12C202.36 23.66 202.06 25.68 201.74 26.9L202.94 27.24C203.34 25.92 203.72 23.82 203.98 22.06L203.02 21.78L202.76 21.84H202.54ZM206.04 21.66V23.1H223.94V21.66H206.04ZM212.58 26.4V27.84H220.58V26.4H212.58ZM220.04 26.4L220.02 26.66C219.68 32.14 219.28 34.38 218.64 34.96C218.42 35.16 218.14 35.18 217.7 35.18C217.18 35.18 215.76 35.18 214.32 35.04C214.6 35.46 214.82 36.08 214.84 36.52C216.2 36.58 217.52 36.62 218.22 36.58C218.98 36.52 219.48 36.38 219.94 35.9C220.72 35.1 221.12 32.88 221.52 27.12C221.56 26.9 221.58 26.4 221.58 26.4H220.04ZM212.24 22.46C212.02 27.24 211.68 32.82 205.84 35.46C206.22 35.76 206.7 36.3 206.92 36.68C213.02 33.76 213.6 27.76 213.9 22.46H212.24ZM214.14 18.16V22.28H215.68V18.16H214.14ZM239.18 19.2C240.22 19.92 241.44 21 242.04 21.72L243.1 20.78C242.48 20.08 241.22 19.04 240.18 18.34L239.18 19.2ZM226.1 21.94V23.4H243.92V21.94H226.1ZM226.78 26.4V27.86H235.62V26.4H226.78ZM230.38 27.18V34.32H231.88V27.18H230.38ZM226.18 34.52L226.64 36.02C229.22 35.44 232.88 34.6 236.3 33.8L236.18 32.46C232.48 33.26 228.56 34.06 226.18 34.52ZM236.28 18.3C236.36 27.98 237.98 36.64 241.96 36.64C243.5 36.64 244.08 35.62 244.34 32.12C243.92 31.98 243.34 31.64 243 31.3C242.88 33.98 242.64 35.08 242.08 35.08C239.62 35.08 237.82 27.58 237.88 18.3H236.28Z" fill="black"/>
<g clip-path="url(#clip0_388_5795)">
<path d="M354 33L359 28L354 23" stroke="white" stroke-width="2" stroke-linecap="round" stroke-linejoin="round"/>
<path d="M347 33L352 28L347 23" stroke="white" stroke-width="2" stroke-linecap="round" stroke-linejoin="round"/>
</g>
<line y1="55.5" x2="370" y2="55.5" stroke="black"/>
<defs>
<clipPath id="clip0_388_5795">
<rect width="14" height="12" fill="white" transform="translate(346 22)"/>
</clipPath>
</defs>
</svg>
