<svg width="12" height="25" viewBox="0 0 12 25" fill="none" xmlns="http://www.w3.org/2000/svg">
<path d="M0 12.5597L12 0.599804L12 12.5597V24.7998L0 12.5597Z" fill="#D0ABCC"/>
<mask id="path-2-inside-1_658_873" fill="white">
<ellipse cx="4.78006" cy="12.6997" rx="0.780061" ry="0.982908"/>
</mask>
<path d="M4.56012 12.6997C4.56012 12.762 4.5392 12.7846 4.54835 12.7731C4.55404 12.7659 4.57336 12.7442 4.61337 12.7229C4.65556 12.7004 4.71355 12.6826 4.78006 12.6826V14.6826C5.96634 14.6826 6.56012 13.5669 6.56012 12.6997H4.56012ZM4.78006 12.6826C4.84657 12.6826 4.90456 12.7004 4.94675 12.7229C4.98676 12.7442 5.00608 12.7659 5.01177 12.7731C5.02092 12.7846 5 12.762 5 12.6997H3C3 13.5669 3.59378 14.6826 4.78006 14.6826V12.6826ZM5 12.6997C5 12.6374 5.02092 12.6148 5.01177 12.6263C5.00608 12.6335 4.98676 12.6552 4.94675 12.6765C4.90456 12.699 4.84657 12.7168 4.78006 12.7168V10.7168C3.59378 10.7168 3 11.8325 3 12.6997H5ZM4.78006 12.7168C4.71355 12.7168 4.65556 12.699 4.61337 12.6765C4.57336 12.6552 4.55404 12.6335 4.54835 12.6263C4.5392 12.6148 4.56012 12.6374 4.56012 12.6997H6.56012C6.56012 11.8325 5.96634 10.7168 4.78006 10.7168V12.7168Z" fill="white" mask="url(#path-2-inside-1_658_873)"/>
</svg>
